<svg xmlns="http://www.w3.org/2000/svg" xmlns:xlink="http://www.w3.org/1999/xlink" width="138" zoomAndPan="magnify" viewBox="0 0 103.5 125.249995" height="167" preserveAspectRatio="xMidYMid meet" version="1.0"><defs><clipPath id="75da276abb"><path d="M 18 19 L 89 19 L 89 124.503906 L 18 124.503906 Z M 18 19 " clip-rule="nonzero"/></clipPath><clipPath id="096bdf7689"><path d="M 0.0585938 66 L 15 66 L 15 75 L 0.0585938 75 Z M 0.0585938 66 " clip-rule="nonzero"/></clipPath><clipPath id="5e89cec641"><path d="M 63 0 L 102.199219 0 L 102.199219 39 L 63 39 Z M 63 0 " clip-rule="nonzero"/></clipPath><clipPath id="383b60da68"><path d="M 18 19 L 89 19 L 89 124.503906 L 18 124.503906 Z M 18 19 " clip-rule="nonzero"/></clipPath><clipPath id="4eaeb1b739"><path d="M 0.0585938 66 L 15 66 L 15 75 L 0.0585938 75 Z M 0.0585938 66 " clip-rule="nonzero"/></clipPath><clipPath id="360772edbc"><path d="M 63 0 L 102.199219 0 L 102.199219 39 L 63 39 Z M 63 0 " clip-rule="nonzero"/></clipPath></defs><g clip-path="url(#75da276abb)"><path fill="#e8e7e6" d="M 18.390625 57.027344 C 18.953125 66.488281 23.429688 73.160156 27.085938 77.09375 C 30.355469 80.609375 32.246094 85.160156 32.40625 89.914062 C 32.441406 91.015625 32.46875 91.953125 32.484375 92.730469 C 31.757812 92.652344 31.085938 93.109375 30.886719 93.808594 C 29.460938 98.757812 31.644531 102.375 33.886719 104.398438 C 33.394531 105.933594 33.386719 107.523438 33.875 109.125 C 34.898438 112.484375 37.835938 114.875 41.359375 115.320312 C 42.746094 120.929688 47.195312 124.253906 53.347656 124.253906 C 53.386719 124.253906 53.425781 124.253906 53.464844 124.253906 C 59.730469 124.207031 64.253906 120.851562 65.628906 115.261719 C 68.300781 114.449219 70.496094 112.460938 71.46875 109.792969 C 71.929688 108.535156 72.128906 107.320312 72.050781 106.285156 C 72 105.578125 71.800781 105.035156 71.53125 104.621094 C 73.765625 102.324219 74.761719 99.636719 74.566406 96.453125 C 74.46875 94.882812 73.851562 93.773438 72.730469 93.15625 C 72.207031 92.867188 71.640625 92.734375 71.09375 92.6875 C 71.542969 87.722656 73.878906 83.042969 77.644531 79.679688 C 83.175781 74.746094 86.878906 68.179688 88.351562 60.6875 C 88.4375 60.238281 88.316406 59.796875 88.050781 59.460938 C 87.785156 58.996094 87.277344 58.683594 86.707031 58.699219 L 79.183594 58.882812 L 79.160156 58.582031 C 79.097656 57.769531 79.339844 56.996094 79.839844 56.402344 C 80.910156 55.117188 82.605469 52.347656 81.921875 48.195312 C 81.25 44.117188 77.941406 41.128906 73.492188 40.582031 C 69.078125 40.039062 65.167969 42.136719 63.535156 45.921875 C 61.105469 51.550781 63.988281 55.382812 65.34375 56.765625 C 65.777344 57.214844 66.0625 57.800781 66.15625 58.445312 L 56.09375 58.273438 L 56.046875 49.953125 C 56.042969 49.539062 55.871094 49.144531 55.570312 48.863281 C 55.269531 48.582031 54.863281 48.433594 54.449219 48.460938 L 53.097656 48.539062 C 51.625 48.628906 50.25 49.226562 49.222656 50.230469 C 47.78125 51.640625 45.300781 52.992188 41.675781 51.429688 C 39.757812 50.597656 37.675781 48.3125 38.132812 44.601562 C 38.417969 42.257812 39.929688 39.324219 43.246094 38.777344 C 46.066406 38.3125 47.945312 39.292969 49.03125 40.199219 C 50.226562 41.199219 51.769531 41.6875 53.359375 41.574219 L 55.09375 41.445312 C 55.890625 41.390625 56.503906 40.71875 56.488281 39.917969 L 56.152344 21.664062 C 56.152344 21.609375 56.144531 21.550781 56.140625 21.496094 C 56.144531 21.441406 56.152344 21.386719 56.152344 21.332031 C 56.1875 20.5 55.542969 19.800781 54.714844 19.765625 C 50.800781 19.597656 46.96875 20.070312 43.335938 21.164062 C 37.558594 22.90625 32.234375 26.226562 27.925781 30.769531 C 23.5625 35.378906 20.5625 40.929688 19.257812 46.816406 C 18.488281 50.304688 18.195312 53.742188 18.390625 57.027344 Z M 29.292969 75.042969 C 26.535156 72.078125 23.269531 67.402344 21.941406 60.992188 L 34.769531 60.703125 L 34.792969 61.007812 C 34.851562 61.820312 34.609375 62.59375 34.113281 63.1875 C 33.042969 64.46875 31.347656 67.242188 32.03125 71.394531 C 32.703125 75.472656 36.011719 78.460938 40.460938 79.007812 C 40.925781 79.066406 41.378906 79.09375 41.828125 79.09375 C 45.667969 79.09375 48.957031 77.058594 50.421875 73.667969 C 52.851562 68.039062 49.964844 64.207031 48.613281 62.820312 C 48.175781 62.375 47.894531 61.789062 47.800781 61.144531 L 53.101562 61.234375 L 53.144531 68.921875 C 53.148438 69.335938 53.320312 69.730469 53.621094 70.011719 C 53.921875 70.292969 54.328125 70.4375 54.742188 70.414062 L 56.09375 70.332031 C 57.566406 70.246094 58.941406 69.644531 59.96875 68.644531 C 61.410156 67.234375 63.890625 65.878906 67.515625 67.445312 C 69.433594 68.277344 71.515625 70.558594 71.058594 74.269531 C 70.773438 76.617188 69.261719 79.550781 65.945312 80.097656 C 63.125 80.5625 61.246094 79.578125 60.160156 78.671875 C 58.964844 77.671875 57.421875 77.1875 55.832031 77.300781 L 54.097656 77.425781 C 53.308594 77.484375 52.699219 78.144531 52.703125 78.9375 L 52.796875 93.777344 C 47.023438 93.839844 41.25 93.59375 35.503906 93.035156 C 35.492188 92.175781 35.464844 91.097656 35.421875 89.804688 C 35.230469 84.335938 33.054688 79.085938 29.292969 75.042969 Z M 53.445312 121.238281 C 48.984375 121.28125 45.789062 119.167969 44.523438 115.421875 L 62.367188 115.652344 C 61.4375 118.144531 59.140625 121.203125 53.445312 121.238281 Z M 68.640625 108.761719 C 67.785156 111.121094 65.464844 112.679688 62.859375 112.648438 L 42.46875 112.386719 C 39.835938 112.351562 37.488281 110.648438 36.753906 108.246094 C 36.554688 107.59375 36.484375 106.964844 36.539062 106.339844 C 46.820312 107.253906 57.234375 107.222656 67.507812 106.242188 C 67.789062 106.214844 68.238281 106.175781 68.597656 106.195312 C 68.730469 106.242188 68.867188 106.269531 69.007812 106.277344 C 69.019531 106.3125 69.039062 106.382812 69.046875 106.507812 C 69.09375 107.113281 68.949219 107.914062 68.640625 108.761719 Z M 71.5625 96.640625 C 71.726562 99.28125 70.832031 101.324219 68.675781 103.183594 C 68.136719 103.160156 67.628906 103.207031 67.222656 103.246094 C 57.410156 104.179688 47.46875 104.234375 37.636719 103.410156 C 37.53125 103.300781 37.410156 103.210938 37.269531 103.136719 C 37.074219 103.035156 32.851562 100.726562 33.515625 95.871094 C 45.476562 97.15625 57.589844 97.117188 69.546875 95.753906 C 70.0625 95.699219 70.925781 95.601562 71.277344 95.792969 C 71.476562 95.902344 71.542969 96.316406 71.5625 96.640625 Z M 67.738281 61.484375 C 68.160156 61.488281 68.5625 61.324219 68.847656 61.019531 C 69.140625 60.714844 69.292969 60.308594 69.265625 59.886719 L 69.1875 58.535156 C 69.097656 57.0625 68.5 55.6875 67.496094 54.664062 C 66.085938 53.21875 64.730469 50.738281 66.296875 47.113281 C 67.128906 45.195312 69.414062 43.117188 73.121094 43.570312 C 75.46875 43.859375 78.402344 45.367188 78.949219 48.683594 C 79.414062 51.503906 78.433594 53.386719 77.527344 54.46875 C 76.523438 55.664062 76.039062 57.203125 76.152344 58.800781 L 76.277344 60.53125 C 76.335938 61.332031 77.015625 61.953125 77.816406 61.925781 L 85.019531 61.753906 C 83.484375 67.90625 80.265625 73.304688 75.640625 77.433594 C 71.179688 81.414062 68.457031 86.988281 68.050781 92.886719 C 63.980469 93.320312 59.890625 93.601562 55.800781 93.722656 L 55.714844 80.335938 L 56.039062 80.308594 C 56.855469 80.25 57.625 80.492188 58.222656 80.988281 C 59.503906 82.0625 62.277344 83.757812 66.429688 83.070312 C 70.503906 82.398438 73.492188 79.089844 74.039062 74.640625 C 74.582031 70.226562 72.484375 66.320312 68.703125 64.6875 C 63.070312 62.253906 59.238281 65.140625 57.855469 66.496094 C 57.402344 66.9375 56.796875 67.222656 56.140625 67.308594 L 56.105469 61.289062 Z M 22.203125 47.460938 C 24.585938 36.699219 33.429688 27.289062 44.207031 24.039062 C 47.074219 23.171875 50.082031 22.738281 53.160156 22.738281 L 53.453125 38.542969 L 53.144531 38.5625 C 52.328125 38.621094 51.558594 38.382812 50.960938 37.882812 C 49.679688 36.8125 46.90625 35.117188 42.753906 35.800781 C 38.679688 36.472656 35.691406 39.785156 35.144531 44.230469 C 34.601562 48.644531 36.699219 52.554688 40.480469 54.1875 C 46.113281 56.621094 49.945312 53.734375 51.328125 52.378906 C 51.78125 51.933594 52.386719 51.652344 53.042969 51.5625 L 53.082031 58.21875 L 46.214844 58.101562 C 45.785156 58.09375 45.390625 58.261719 45.101562 58.566406 C 44.8125 58.871094 44.660156 59.277344 44.683594 59.699219 L 44.765625 61.050781 C 44.851562 62.523438 45.453125 63.898438 46.457031 64.925781 C 47.867188 66.367188 49.21875 68.847656 47.652344 72.472656 C 46.824219 74.390625 44.539062 76.472656 40.828125 76.015625 C 38.484375 75.726562 35.550781 74.21875 35.003906 70.902344 C 34.539062 68.082031 35.519531 66.203125 36.425781 65.117188 C 37.425781 63.921875 37.914062 62.382812 37.796875 60.785156 L 37.671875 59.054688 C 37.613281 58.253906 36.933594 57.640625 36.136719 57.660156 L 21.492188 57.988281 C 21.453125 57.613281 21.421875 57.234375 21.398438 56.847656 C 21.214844 53.839844 21.484375 50.683594 22.203125 47.460938 Z M 22.203125 47.460938 " fill-opacity="1" fill-rule="nonzero"/></g><g clip-path="url(#096bdf7689)"><path fill="#e8e7e6" d="M 0.195312 74.066406 C 0.457031 74.605469 0.996094 74.925781 1.558594 74.925781 C 1.773438 74.925781 1.992188 74.878906 2.203125 74.78125 L 14.0625 69.140625 C 14.8125 68.785156 15.132812 67.886719 14.773438 67.136719 C 14.417969 66.386719 13.519531 66.066406 12.769531 66.425781 L 0.910156 72.058594 C 0.160156 72.417969 -0.160156 73.316406 0.195312 74.066406 Z M 0.195312 74.066406 " fill-opacity="1" fill-rule="nonzero"/></g><path fill="#e8e7e6" d="M 38.40625 0.015625 C 37.585938 0.164062 37.039062 0.945312 37.183594 1.761719 L 39.460938 14.691406 C 39.589844 15.421875 40.222656 15.9375 40.941406 15.9375 C 41.027344 15.9375 41.117188 15.929688 41.203125 15.914062 C 42.023438 15.769531 42.570312 14.988281 42.425781 14.171875 L 40.148438 1.238281 C 40.003906 0.421875 39.226562 -0.125 38.40625 0.015625 Z M 38.40625 0.015625 " fill-opacity="1" fill-rule="nonzero"/><path fill="#e8e7e6" d="M 15.492188 37.617188 C 15.703125 37.71875 15.921875 37.765625 16.144531 37.765625 C 16.703125 37.765625 17.242188 37.453125 17.5 36.914062 C 17.863281 36.164062 17.546875 35.265625 16.796875 34.902344 L 4.964844 29.210938 C 4.214844 28.847656 3.316406 29.164062 2.953125 29.914062 C 2.59375 30.664062 2.910156 31.5625 3.660156 31.925781 Z M 15.492188 37.617188 " fill-opacity="1" fill-rule="nonzero"/><g clip-path="url(#5e89cec641)"><path fill="#e8e7e6" d="M 83.105469 35.773438 L 83.230469 37.503906 C 83.285156 38.292969 83.945312 38.898438 84.730469 38.898438 C 84.738281 38.898438 84.753906 38.898438 84.761719 38.898438 L 100.460938 38.5625 C 100.519531 38.5625 100.574219 38.558594 100.628906 38.550781 C 100.683594 38.558594 100.734375 38.5625 100.789062 38.566406 C 101.625 38.605469 102.324219 37.957031 102.359375 37.125 C 102.523438 33.210938 102.050781 29.382812 100.957031 25.75 C 99.214844 19.972656 95.894531 14.644531 91.351562 10.339844 C 86.742188 5.972656 81.191406 2.976562 75.304688 1.671875 C 71.632812 0.859375 65.449219 0.800781 65.1875 0.796875 C 65.183594 0.796875 65.179688 0.796875 65.175781 0.796875 C 64.78125 0.796875 64.402344 0.953125 64.117188 1.230469 C 63.835938 1.511719 63.671875 1.898438 63.671875 2.296875 L 63.53125 37.003906 C 63.527344 37.40625 63.6875 37.792969 63.972656 38.074219 C 64.253906 38.359375 64.640625 38.507812 65.046875 38.515625 L 74.71875 38.453125 C 75.132812 38.453125 75.527344 38.277344 75.808594 37.976562 C 76.089844 37.675781 76.234375 37.273438 76.210938 36.859375 L 76.132812 35.503906 C 76.042969 34.03125 75.445312 32.65625 74.441406 31.632812 C 73.03125 30.1875 71.675781 27.707031 73.242188 24.085938 C 74.570312 21.011719 77.75 20.253906 80.066406 20.539062 C 82.414062 20.828125 85.347656 22.339844 85.894531 25.652344 C 86.359375 28.472656 85.375 30.355469 84.472656 31.4375 C 83.472656 32.640625 82.984375 34.179688 83.105469 35.773438 Z M 80.4375 17.554688 C 79.976562 17.5 79.519531 17.46875 79.070312 17.46875 C 75.230469 17.46875 71.941406 19.503906 70.476562 22.894531 C 68.046875 28.527344 70.933594 32.355469 72.285156 33.742188 C 72.730469 34.195312 73.015625 34.796875 73.101562 35.457031 L 66.546875 35.496094 L 66.675781 3.84375 C 68.703125 3.910156 72.328125 4.09375 74.652344 4.613281 C 85.410156 6.996094 94.824219 15.839844 98.074219 26.617188 C 98.9375 29.488281 99.375 32.496094 99.378906 35.574219 L 86.125 35.859375 L 86.101562 35.554688 C 86.042969 34.742188 86.28125 33.96875 86.777344 33.371094 C 87.851562 32.089844 89.546875 29.316406 88.863281 25.164062 C 88.195312 21.089844 84.886719 18.101562 80.4375 17.554688 Z M 80.4375 17.554688 " fill-opacity="1" fill-rule="nonzero"/></g><g clip-path="url(#383b60da68)"><path fill="#e8e7e6" d="M 18.390625 57.027344 C 18.953125 66.488281 23.429688 73.160156 27.085938 77.09375 C 30.355469 80.609375 32.246094 85.160156 32.40625 89.914062 C 32.441406 91.015625 32.46875 91.953125 32.484375 92.730469 C 31.757812 92.652344 31.085938 93.109375 30.886719 93.808594 C 29.460938 98.757812 31.644531 102.375 33.886719 104.398438 C 33.394531 105.933594 33.386719 107.523438 33.875 109.125 C 34.898438 112.484375 37.835938 114.875 41.359375 115.320312 C 42.746094 120.929688 47.195312 124.253906 53.347656 124.253906 C 53.386719 124.253906 53.425781 124.253906 53.464844 124.253906 C 59.730469 124.207031 64.253906 120.851562 65.628906 115.261719 C 68.300781 114.449219 70.496094 112.460938 71.46875 109.792969 C 71.929688 108.535156 72.128906 107.320312 72.050781 106.285156 C 72 105.578125 71.800781 105.035156 71.53125 104.621094 C 73.765625 102.324219 74.761719 99.636719 74.566406 96.453125 C 74.46875 94.882812 73.851562 93.773438 72.730469 93.15625 C 72.207031 92.867188 71.640625 92.734375 71.09375 92.6875 C 71.542969 87.722656 73.878906 83.042969 77.644531 79.679688 C 83.175781 74.746094 86.878906 68.179688 88.351562 60.6875 C 88.4375 60.238281 88.316406 59.796875 88.050781 59.460938 C 87.785156 58.996094 87.277344 58.683594 86.707031 58.699219 L 79.183594 58.882812 L 79.160156 58.582031 C 79.097656 57.769531 79.339844 56.996094 79.839844 56.402344 C 80.910156 55.117188 82.605469 52.347656 81.921875 48.195312 C 81.25 44.117188 77.941406 41.128906 73.492188 40.582031 C 69.078125 40.039062 65.167969 42.136719 63.535156 45.921875 C 61.105469 51.550781 63.988281 55.382812 65.34375 56.765625 C 65.777344 57.214844 66.0625 57.800781 66.15625 58.445312 L 56.09375 58.273438 L 56.046875 49.953125 C 56.042969 49.539062 55.871094 49.144531 55.570312 48.863281 C 55.269531 48.582031 54.863281 48.433594 54.449219 48.460938 L 53.097656 48.539062 C 51.625 48.628906 50.25 49.226562 49.222656 50.230469 C 47.78125 51.640625 45.300781 52.992188 41.675781 51.429688 C 39.757812 50.597656 37.675781 48.3125 38.132812 44.601562 C 38.417969 42.257812 39.929688 39.324219 43.246094 38.777344 C 46.066406 38.3125 47.945312 39.292969 49.03125 40.199219 C 50.226562 41.199219 51.769531 41.6875 53.359375 41.574219 L 55.09375 41.445312 C 55.890625 41.390625 56.503906 40.71875 56.488281 39.917969 L 56.152344 21.664062 C 56.152344 21.609375 56.144531 21.550781 56.140625 21.496094 C 56.144531 21.441406 56.152344 21.386719 56.152344 21.332031 C 56.1875 20.5 55.542969 19.800781 54.714844 19.765625 C 50.800781 19.597656 46.96875 20.070312 43.335938 21.164062 C 37.558594 22.90625 32.234375 26.226562 27.925781 30.769531 C 23.5625 35.378906 20.5625 40.929688 19.257812 46.816406 C 18.488281 50.304688 18.195312 53.742188 18.390625 57.027344 Z M 29.292969 75.042969 C 26.535156 72.078125 23.269531 67.402344 21.941406 60.992188 L 34.769531 60.703125 L 34.792969 61.007812 C 34.851562 61.820312 34.609375 62.59375 34.113281 63.1875 C 33.042969 64.46875 31.347656 67.242188 32.03125 71.394531 C 32.703125 75.472656 36.011719 78.460938 40.460938 79.007812 C 40.925781 79.066406 41.378906 79.09375 41.828125 79.09375 C 45.667969 79.09375 48.957031 77.058594 50.421875 73.667969 C 52.851562 68.039062 49.964844 64.207031 48.613281 62.820312 C 48.175781 62.375 47.894531 61.789062 47.800781 61.144531 L 53.101562 61.234375 L 53.144531 68.921875 C 53.148438 69.335938 53.320312 69.730469 53.621094 70.011719 C 53.921875 70.292969 54.328125 70.4375 54.742188 70.414062 L 56.09375 70.332031 C 57.566406 70.246094 58.941406 69.644531 59.96875 68.644531 C 61.410156 67.234375 63.890625 65.878906 67.515625 67.445312 C 69.433594 68.277344 71.515625 70.558594 71.058594 74.269531 C 70.773438 76.617188 69.261719 79.550781 65.945312 80.097656 C 63.125 80.5625 61.246094 79.578125 60.160156 78.671875 C 58.964844 77.671875 57.421875 77.1875 55.832031 77.300781 L 54.097656 77.425781 C 53.308594 77.484375 52.699219 78.144531 52.703125 78.9375 L 52.796875 93.777344 C 47.023438 93.839844 41.25 93.59375 35.503906 93.035156 C 35.492188 92.175781 35.464844 91.097656 35.421875 89.804688 C 35.230469 84.335938 33.054688 79.085938 29.292969 75.042969 Z M 53.445312 121.238281 C 48.984375 121.28125 45.789062 119.167969 44.523438 115.421875 L 62.367188 115.652344 C 61.4375 118.144531 59.140625 121.203125 53.445312 121.238281 Z M 68.640625 108.761719 C 67.785156 111.121094 65.464844 112.679688 62.859375 112.648438 L 42.46875 112.386719 C 39.835938 112.351562 37.488281 110.648438 36.753906 108.246094 C 36.554688 107.59375 36.484375 106.964844 36.539062 106.339844 C 46.820312 107.253906 57.234375 107.222656 67.507812 106.242188 C 67.789062 106.214844 68.238281 106.175781 68.597656 106.195312 C 68.730469 106.242188 68.867188 106.269531 69.007812 106.277344 C 69.019531 106.3125 69.039062 106.382812 69.046875 106.507812 C 69.09375 107.113281 68.949219 107.914062 68.640625 108.761719 Z M 71.5625 96.640625 C 71.726562 99.28125 70.832031 101.324219 68.675781 103.183594 C 68.136719 103.160156 67.628906 103.207031 67.222656 103.246094 C 57.410156 104.179688 47.46875 104.234375 37.636719 103.410156 C 37.53125 103.300781 37.410156 103.210938 37.269531 103.136719 C 37.074219 103.035156 32.851562 100.726562 33.515625 95.871094 C 45.476562 97.15625 57.589844 97.117188 69.546875 95.753906 C 70.0625 95.699219 70.925781 95.601562 71.277344 95.792969 C 71.476562 95.902344 71.542969 96.316406 71.5625 96.640625 Z M 67.738281 61.484375 C 68.160156 61.488281 68.5625 61.324219 68.847656 61.019531 C 69.140625 60.714844 69.292969 60.308594 69.265625 59.886719 L 69.1875 58.535156 C 69.097656 57.0625 68.5 55.6875 67.496094 54.664062 C 66.085938 53.21875 64.730469 50.738281 66.296875 47.113281 C 67.128906 45.195312 69.414062 43.117188 73.121094 43.570312 C 75.46875 43.859375 78.402344 45.367188 78.949219 48.683594 C 79.414062 51.503906 78.433594 53.386719 77.527344 54.46875 C 76.523438 55.664062 76.039062 57.203125 76.152344 58.800781 L 76.277344 60.53125 C 76.335938 61.332031 77.015625 61.953125 77.816406 61.925781 L 85.019531 61.753906 C 83.484375 67.90625 80.265625 73.304688 75.640625 77.433594 C 71.179688 81.414062 68.457031 86.988281 68.050781 92.886719 C 63.980469 93.320312 59.890625 93.601562 55.800781 93.722656 L 55.714844 80.335938 L 56.039062 80.308594 C 56.855469 80.25 57.625 80.492188 58.222656 80.988281 C 59.503906 82.0625 62.277344 83.757812 66.429688 83.070312 C 70.503906 82.398438 73.492188 79.089844 74.039062 74.640625 C 74.582031 70.226562 72.484375 66.320312 68.703125 64.6875 C 63.070312 62.253906 59.238281 65.140625 57.855469 66.496094 C 57.402344 66.9375 56.796875 67.222656 56.140625 67.308594 L 56.105469 61.289062 Z M 22.203125 47.460938 C 24.585938 36.699219 33.429688 27.289062 44.207031 24.039062 C 47.074219 23.171875 50.082031 22.738281 53.160156 22.738281 L 53.453125 38.542969 L 53.144531 38.5625 C 52.328125 38.621094 51.558594 38.382812 50.960938 37.882812 C 49.679688 36.8125 46.90625 35.117188 42.753906 35.800781 C 38.679688 36.472656 35.691406 39.785156 35.144531 44.230469 C 34.601562 48.644531 36.699219 52.554688 40.480469 54.1875 C 46.113281 56.621094 49.945312 53.734375 51.328125 52.378906 C 51.78125 51.933594 52.386719 51.652344 53.042969 51.5625 L 53.082031 58.21875 L 46.214844 58.101562 C 45.785156 58.09375 45.390625 58.261719 45.101562 58.566406 C 44.8125 58.871094 44.660156 59.277344 44.683594 59.699219 L 44.765625 61.050781 C 44.851562 62.523438 45.453125 63.898438 46.457031 64.925781 C 47.867188 66.367188 49.21875 68.847656 47.652344 72.472656 C 46.824219 74.390625 44.539062 76.472656 40.828125 76.015625 C 38.484375 75.726562 35.550781 74.21875 35.003906 70.902344 C 34.539062 68.082031 35.519531 66.203125 36.425781 65.117188 C 37.425781 63.921875 37.914062 62.382812 37.796875 60.785156 L 37.671875 59.054688 C 37.613281 58.253906 36.933594 57.640625 36.136719 57.660156 L 21.492188 57.988281 C 21.453125 57.613281 21.421875 57.234375 21.398438 56.847656 C 21.214844 53.839844 21.484375 50.683594 22.203125 47.460938 Z M 22.203125 47.460938 " fill-opacity="1" fill-rule="nonzero"/></g><g clip-path="url(#4eaeb1b739)"><path fill="#e8e7e6" d="M 0.195312 74.066406 C 0.457031 74.605469 0.996094 74.925781 1.558594 74.925781 C 1.773438 74.925781 1.992188 74.878906 2.203125 74.78125 L 14.0625 69.140625 C 14.8125 68.785156 15.132812 67.886719 14.773438 67.136719 C 14.417969 66.386719 13.519531 66.066406 12.769531 66.425781 L 0.910156 72.058594 C 0.160156 72.417969 -0.160156 73.316406 0.195312 74.066406 Z M 0.195312 74.066406 " fill-opacity="1" fill-rule="nonzero"/></g><path fill="#e8e7e6" d="M 38.40625 0.015625 C 37.585938 0.164062 37.039062 0.945312 37.183594 1.761719 L 39.460938 14.691406 C 39.589844 15.421875 40.222656 15.9375 40.941406 15.9375 C 41.027344 15.9375 41.117188 15.929688 41.203125 15.914062 C 42.023438 15.769531 42.570312 14.988281 42.425781 14.171875 L 40.148438 1.238281 C 40.003906 0.421875 39.226562 -0.125 38.40625 0.015625 Z M 38.40625 0.015625 " fill-opacity="1" fill-rule="nonzero"/><path fill="#e8e7e6" d="M 15.492188 37.617188 C 15.703125 37.71875 15.921875 37.765625 16.144531 37.765625 C 16.703125 37.765625 17.242188 37.453125 17.5 36.914062 C 17.863281 36.164062 17.546875 35.265625 16.796875 34.902344 L 4.964844 29.210938 C 4.214844 28.847656 3.316406 29.164062 2.953125 29.914062 C 2.59375 30.664062 2.910156 31.5625 3.660156 31.925781 Z M 15.492188 37.617188 " fill-opacity="1" fill-rule="nonzero"/><g clip-path="url(#360772edbc)"><path fill="#e8e7e6" d="M 83.105469 35.773438 L 83.230469 37.503906 C 83.285156 38.292969 83.945312 38.898438 84.730469 38.898438 C 84.738281 38.898438 84.753906 38.898438 84.761719 38.898438 L 100.460938 38.5625 C 100.519531 38.5625 100.574219 38.558594 100.628906 38.550781 C 100.683594 38.558594 100.734375 38.5625 100.789062 38.566406 C 101.625 38.605469 102.324219 37.957031 102.359375 37.125 C 102.523438 33.210938 102.050781 29.382812 100.957031 25.75 C 99.214844 19.972656 95.894531 14.644531 91.351562 10.339844 C 86.742188 5.972656 81.191406 2.976562 75.304688 1.671875 C 71.632812 0.859375 65.449219 0.800781 65.1875 0.796875 C 65.183594 0.796875 65.179688 0.796875 65.175781 0.796875 C 64.78125 0.796875 64.402344 0.953125 64.117188 1.230469 C 63.835938 1.511719 63.671875 1.898438 63.671875 2.296875 L 63.53125 37.003906 C 63.527344 37.40625 63.6875 37.792969 63.972656 38.074219 C 64.253906 38.359375 64.640625 38.507812 65.046875 38.515625 L 74.71875 38.453125 C 75.132812 38.453125 75.527344 38.277344 75.808594 37.976562 C 76.089844 37.675781 76.234375 37.273438 76.210938 36.859375 L 76.132812 35.503906 C 76.042969 34.03125 75.445312 32.65625 74.441406 31.632812 C 73.03125 30.1875 71.675781 27.707031 73.242188 24.085938 C 74.570312 21.011719 77.75 20.253906 80.066406 20.539062 C 82.414062 20.828125 85.347656 22.339844 85.894531 25.652344 C 86.359375 28.472656 85.375 30.355469 84.472656 31.4375 C 83.472656 32.640625 82.984375 34.179688 83.105469 35.773438 Z M 80.4375 17.554688 C 79.976562 17.5 79.519531 17.46875 79.070312 17.46875 C 75.230469 17.46875 71.941406 19.503906 70.476562 22.894531 C 68.046875 28.527344 70.933594 32.355469 72.285156 33.742188 C 72.730469 34.195312 73.015625 34.796875 73.101562 35.457031 L 66.546875 35.496094 L 66.675781 3.84375 C 68.703125 3.910156 72.328125 4.09375 74.652344 4.613281 C 85.410156 6.996094 94.824219 15.839844 98.074219 26.617188 C 98.9375 29.488281 99.375 32.496094 99.378906 35.574219 L 86.125 35.859375 L 86.101562 35.554688 C 86.042969 34.742188 86.28125 33.96875 86.777344 33.371094 C 87.851562 32.089844 89.546875 29.316406 88.863281 25.164062 C 88.195312 21.089844 84.886719 18.101562 80.4375 17.554688 Z M 80.4375 17.554688 " fill-opacity="1" fill-rule="nonzero"/></g></svg>