<svg xmlns="http://www.w3.org/2000/svg" xmlns:xlink="http://www.w3.org/1999/xlink" width="153" zoomAndPan="magnify" viewBox="0 0 114.75 116.249996" height="155" preserveAspectRatio="xMidYMid meet" version="1.0"><defs><clipPath id="eb39632b8d"><path d="M 0.242188 0 L 114 0 L 114 114.757812 L 0.242188 114.757812 Z M 0.242188 0 " clip-rule="nonzero"/></clipPath></defs><g clip-path="url(#eb39632b8d)"><path fill="#e8e7e6" d="M 26.109375 41.476562 L 26.109375 38.570312 C 26.109375 37.882812 26.585938 37.304688 27.222656 37.144531 L 30.785156 36.238281 C 30.929688 35.792969 31.089844 35.355469 31.265625 34.929688 C 31.445312 34.5 31.640625 34.078125 31.851562 33.664062 L 29.957031 30.484375 C 29.605469 29.890625 29.714844 29.152344 30.179688 28.6875 L 34.285156 24.574219 C 34.800781 24.058594 35.605469 24.003906 36.179688 24.414062 L 39.269531 26.253906 C 39.6875 26.039062 40.121094 25.839844 40.566406 25.65625 C 41 25.476562 41.445312 25.316406 41.898438 25.171875 L 42.796875 21.625 C 42.972656 20.921875 43.632812 20.460938 44.332031 20.511719 L 50.035156 20.511719 C 50.726562 20.511719 51.304688 20.988281 51.464844 21.628906 L 52.363281 25.171875 C 52.816406 25.316406 53.261719 25.476562 53.695312 25.65625 C 54.140625 25.839844 54.574219 26.039062 54.996094 26.253906 L 58.179688 24.355469 C 58.769531 24.003906 59.507812 24.113281 59.976562 24.578125 L 64.085938 28.683594 C 64.601562 29.199219 64.65625 30.003906 64.246094 30.578125 L 62.410156 33.664062 C 62.621094 34.074219 62.816406 34.5 62.996094 34.933594 C 63.175781 35.363281 63.335938 35.796875 63.476562 36.238281 L 67.039062 37.140625 C 67.710938 37.308594 68.15625 37.910156 68.15625 38.570312 L 68.160156 44.382812 C 68.160156 45.097656 67.644531 45.699219 66.964844 45.832031 L 63.476562 46.714844 C 63.335938 47.152344 63.175781 47.589844 62.996094 48.015625 L 62.996094 48.023438 C 62.820312 48.453125 62.621094 48.875 62.410156 49.289062 L 64.304688 52.46875 C 64.660156 53.0625 64.550781 53.800781 64.082031 54.265625 L 59.976562 58.378906 C 59.460938 58.894531 58.65625 58.949219 58.082031 58.539062 L 54.996094 56.699219 C 54.574219 56.914062 54.140625 57.113281 53.695312 57.296875 C 53.261719 57.476562 52.816406 57.636719 52.363281 57.78125 L 51.46875 61.324219 C 51.300781 61.996094 50.699219 62.441406 50.035156 62.441406 L 44.226562 62.445312 C 43.507812 62.445312 42.910156 61.929688 42.777344 61.25 L 41.898438 57.78125 C 41.445312 57.636719 41 57.476562 40.566406 57.296875 C 40.121094 57.113281 39.6875 56.914062 39.269531 56.699219 L 36.082031 58.597656 C 35.492188 58.949219 34.753906 58.839844 34.289062 58.375 L 30.175781 54.269531 C 29.660156 53.753906 29.605469 52.949219 30.015625 52.371094 L 31.851562 49.289062 C 31.640625 48.875 31.445312 48.453125 31.265625 48.023438 C 31.089844 47.597656 30.929688 47.160156 30.785156 46.714844 L 27.222656 45.8125 C 26.515625 45.636719 26.058594 44.976562 26.109375 44.273438 Z M 77.097656 18.835938 C 76.601562 18.191406 76.726562 17.265625 77.371094 16.769531 C 78.019531 16.277344 78.945312 16.402344 79.4375 17.046875 L 81.601562 19.871094 L 83.769531 17.046875 C 84.261719 16.402344 85.1875 16.277344 85.835938 16.769531 C 86.480469 17.265625 86.605469 18.191406 86.109375 18.835938 L 83.078125 22.785156 L 83.078125 28.367188 L 86.214844 28.367188 C 86.183594 25.445312 87.601562 23.265625 89.105469 20.957031 C 90.523438 18.777344 92.035156 16.460938 92.035156 13.390625 C 92.035156 10.511719 90.867188 7.902344 88.976562 6.015625 C 87.089844 4.128906 84.484375 2.960938 81.601562 2.960938 C 78.722656 2.960938 76.113281 4.128906 74.226562 6.015625 C 72.339844 7.902344 71.171875 10.511719 71.171875 13.390625 C 71.171875 16.460938 72.679688 18.777344 74.101562 20.957031 C 75.601562 23.265625 77.023438 25.445312 76.992188 28.367188 L 80.125 28.367188 L 80.125 22.785156 Z M 77.03125 31.320312 C 77.035156 32.082031 77.03125 32.859375 77.03125 33.589844 L 77.03125 34.230469 L 78.367188 34.230469 C 79.109375 34.230469 79.726562 34.78125 79.828125 35.496094 C 79.871094 35.714844 79.949219 35.917969 80.054688 36.089844 C 80.101562 36.164062 80.152344 36.234375 80.207031 36.300781 L 82.996094 36.300781 C 83.050781 36.234375 83.101562 36.164062 83.148438 36.089844 C 83.261719 35.90625 83.34375 35.691406 83.386719 35.453125 C 83.511719 34.738281 84.136719 34.230469 84.839844 34.234375 L 86.175781 34.230469 L 86.171875 33.601562 C 86.171875 32.867188 86.171875 32.085938 86.175781 31.320312 C 83.125 31.320312 80.078125 31.320312 77.03125 31.320312 Z M 74.042969 28.621094 L 74.042969 28.507812 C 74.125 26.390625 72.914062 24.53125 71.632812 22.5625 C 69.976562 20.019531 68.21875 17.320312 68.21875 13.390625 C 68.21875 9.695312 69.71875 6.347656 72.140625 3.925781 C 74.5625 1.503906 77.90625 0.0078125 81.601562 0.0078125 C 85.296875 0.0078125 88.644531 1.503906 91.066406 3.925781 C 93.488281 6.347656 94.988281 9.695312 94.988281 13.390625 C 94.988281 17.320312 93.230469 20.019531 91.574219 22.5625 C 90.292969 24.53125 89.082031 26.390625 89.164062 28.507812 L 89.164062 28.609375 C 89.105469 30.246094 89.113281 31.972656 89.117188 33.601562 L 89.117188 34.632812 L 89.121094 34.632812 C 89.121094 35.273438 88.878906 35.863281 88.484375 36.3125 L 88.375 36.4375 C 87.910156 36.898438 87.269531 37.183594 86.566406 37.183594 L 85.898438 37.183594 C 85.824219 37.339844 85.742188 37.492188 85.652344 37.636719 C 85.359375 38.109375 84.984375 38.53125 84.550781 38.875 C 84.289062 39.109375 83.941406 39.253906 83.5625 39.253906 L 79.644531 39.253906 L 79.644531 39.246094 C 79.335938 39.25 79.03125 39.152344 78.765625 38.957031 C 78.285156 38.601562 77.871094 38.148438 77.550781 37.636719 C 77.460938 37.488281 77.378906 37.339844 77.304688 37.183594 L 76.636719 37.183594 C 75.992188 37.183594 75.402344 36.941406 74.953125 36.542969 L 74.832031 36.4375 C 74.371094 35.976562 74.082031 35.335938 74.082031 34.632812 L 74.089844 34.632812 L 74.089844 33.589844 C 74.089844 31.972656 74.101562 30.246094 74.042969 28.621094 Z M 11.378906 90.960938 C 12.894531 90.777344 14.34375 91.226562 15.460938 92.101562 C 16.582031 92.980469 17.367188 94.285156 17.550781 95.804688 C 17.734375 97.320312 17.285156 98.769531 16.40625 99.886719 C 15.527344 101.007812 14.222656 101.792969 12.703125 101.976562 C 11.191406 102.160156 9.742188 101.710938 8.621094 100.835938 C 7.503906 99.957031 6.714844 98.652344 6.53125 97.132812 C 6.347656 95.617188 6.800781 94.167969 7.675781 93.050781 C 8.554688 91.929688 9.859375 91.144531 11.378906 90.960938 Z M 13.648438 94.421875 C 13.125 94.011719 12.441406 93.800781 11.722656 93.890625 C 11.011719 93.976562 10.402344 94.339844 9.996094 94.859375 C 9.585938 95.382812 9.375 96.066406 9.460938 96.785156 C 9.546875 97.5 9.914062 98.109375 10.433594 98.515625 C 10.957031 98.925781 11.640625 99.132812 12.359375 99.046875 C 13.070312 98.960938 13.679688 98.597656 14.089844 98.078125 C 14.496094 97.554688 14.707031 96.871094 14.621094 96.152344 C 14.535156 95.4375 14.167969 94.828125 13.648438 94.421875 Z M 80.585938 91.503906 C 80.863281 89.867188 80.5 88.257812 79.667969 86.945312 C 78.832031 85.621094 77.515625 84.601562 75.902344 84.152344 C 75.835938 84.132812 75.769531 84.113281 75.695312 84.097656 L 53.066406 79.722656 C 49.097656 75.859375 44.105469 73.773438 38.972656 73.058594 C 33.765625 72.335938 28.402344 73.027344 23.832031 74.707031 L 23.832031 74.683594 C 23.832031 73.351562 23.285156 72.144531 22.410156 71.265625 C 21.535156 70.390625 20.324219 69.847656 18.992188 69.847656 L 5.089844 69.847656 C 3.757812 69.847656 2.546875 70.390625 1.671875 71.265625 C 0.796875 72.144531 0.25 73.351562 0.25 74.683594 L 0.25 104.199219 C 0.25 105.53125 0.796875 106.738281 1.671875 107.617188 C 2.546875 108.492188 3.757812 109.035156 5.089844 109.035156 L 18.992188 109.035156 C 20.324219 109.035156 21.535156 108.492188 22.410156 107.617188 C 23.074219 106.953125 23.546875 106.097656 23.738281 105.140625 L 72.882812 114.769531 C 73.210938 114.832031 73.566406 114.785156 73.882812 114.609375 L 111.015625 93.898438 C 111.09375 93.859375 111.171875 93.8125 111.246094 93.761719 C 112.53125 92.828125 113.390625 91.5 113.753906 90.050781 C 114.117188 88.605469 113.988281 87.03125 113.296875 85.601562 C 112.605469 84.171875 111.453125 83.09375 110.09375 82.476562 C 108.734375 81.863281 107.164062 81.714844 105.636719 82.140625 L 105.515625 82.179688 Z M 23.832031 102.152344 L 23.832031 77.871094 C 28.175781 76.0625 33.453125 75.265625 38.570312 75.980469 C 43.246094 76.628906 47.777344 78.550781 51.300781 82.117188 C 51.515625 82.339844 51.789062 82.476562 52.070312 82.535156 L 75.140625 86.996094 C 76.011719 87.238281 76.722656 87.796875 77.175781 88.515625 C 77.644531 89.257812 77.84375 90.175781 77.664062 91.101562 C 77.3125 92.917969 75.628906 94.171875 73.773438 93.960938 L 51.390625 89.632812 C 50.589844 89.480469 49.820312 90.007812 49.667969 90.804688 C 49.511719 91.605469 50.039062 92.378906 50.835938 92.53125 L 73.320312 96.875 C 75.023438 97.097656 76.671875 96.636719 77.972656 95.703125 C 78.042969 95.652344 78.109375 95.597656 78.179688 95.546875 L 106.472656 84.964844 C 107.296875 84.746094 108.144531 84.832031 108.882812 85.164062 C 109.628906 85.503906 110.265625 86.097656 110.644531 86.882812 C 111.023438 87.667969 111.09375 88.535156 110.890625 89.335938 C 110.695312 90.113281 110.242188 90.828125 109.5625 91.335938 L 72.925781 111.773438 Z M 18.992188 72.800781 L 5.089844 72.800781 C 4.574219 72.800781 4.101562 73.015625 3.757812 73.355469 C 3.417969 73.695312 3.207031 74.167969 3.207031 74.683594 L 3.207031 104.199219 C 3.207031 104.714844 3.417969 105.1875 3.757812 105.527344 C 4.101562 105.871094 4.574219 106.082031 5.089844 106.082031 L 18.992188 106.082031 C 19.511719 106.082031 19.980469 105.871094 20.324219 105.527344 C 20.664062 105.1875 20.878906 104.714844 20.878906 104.199219 L 20.878906 74.683594 C 20.878906 74.167969 20.664062 73.695312 20.324219 73.355469 C 19.980469 73.015625 19.511719 72.800781 18.992188 72.800781 Z M 85.039062 46.898438 C 80.261719 46.898438 75.929688 48.835938 72.796875 51.96875 C 69.664062 55.105469 67.726562 59.433594 67.726562 64.214844 C 67.726562 68.996094 69.664062 73.324219 72.796875 76.457031 C 75.929688 79.589844 80.261719 81.527344 85.039062 81.527344 C 89.820312 81.527344 94.152344 79.589844 97.285156 76.457031 C 100.417969 73.324219 102.355469 68.996094 102.355469 64.214844 C 102.355469 59.433594 100.417969 55.105469 97.285156 51.96875 C 94.152344 48.835938 89.820312 46.898438 85.039062 46.898438 Z M 95.195312 54.058594 C 97.792969 56.65625 99.402344 60.246094 99.402344 64.214844 C 99.402344 68.179688 97.792969 71.769531 95.195312 74.367188 C 92.597656 76.964844 89.007812 78.574219 85.039062 78.574219 C 81.074219 78.574219 77.484375 76.964844 74.886719 74.367188 C 72.289062 71.769531 70.679688 68.179688 70.679688 64.214844 C 70.679688 60.246094 72.289062 56.65625 74.886719 54.058594 C 77.484375 51.460938 81.074219 49.851562 85.039062 49.851562 C 89.007812 49.851562 92.597656 51.460938 95.195312 54.058594 Z M 83.5625 53.296875 C 83.5625 52.480469 84.226562 51.820312 85.039062 51.820312 C 85.855469 51.820312 86.519531 52.480469 86.519531 53.296875 L 86.519531 54.820312 C 87.539062 55.0625 88.375 55.523438 89.035156 56.195312 L 89.042969 56.203125 C 90.023438 57.207031 90.539062 58.613281 90.617188 60.417969 C 90.648438 61.230469 90.015625 61.917969 89.203125 61.949219 C 88.390625 61.980469 87.707031 61.347656 87.671875 60.535156 C 87.628906 59.484375 87.386719 58.722656 86.933594 58.257812 C 86.171875 57.488281 84.5 57.355469 83.554688 57.90625 C 83.183594 58.125 82.875 58.433594 82.660156 58.792969 C 82.457031 59.136719 82.339844 59.527344 82.339844 59.917969 C 82.339844 60.257812 82.433594 60.605469 82.628906 60.945312 C 83.035156 61.636719 84.351562 62.257812 85.667969 62.882812 C 87.394531 63.699219 89.121094 64.515625 89.988281 65.992188 C 90.464844 66.804688 90.679688 67.660156 90.683594 68.496094 C 90.6875 69.441406 90.421875 70.351562 89.949219 71.144531 C 89.484375 71.921875 88.816406 72.585938 88.011719 73.058594 C 87.554688 73.328125 87.054688 73.53125 86.519531 73.660156 L 86.519531 75.132812 C 86.519531 75.949219 85.855469 76.609375 85.039062 76.609375 C 84.226562 76.609375 83.5625 75.949219 83.5625 75.132812 L 83.5625 73.605469 C 82.539062 73.363281 81.699219 72.902344 81.035156 72.222656 L 81.023438 72.210938 C 80.050781 71.207031 79.542969 69.800781 79.464844 68.007812 C 79.433594 67.195312 80.066406 66.511719 80.878906 66.480469 C 81.691406 66.449219 82.375 67.082031 82.40625 67.890625 C 82.453125 68.941406 82.691406 69.703125 83.140625 70.164062 L 83.148438 70.167969 C 83.90625 70.941406 85.585938 71.070312 86.523438 70.519531 C 86.898438 70.300781 87.207031 69.992188 87.421875 69.632812 C 87.625 69.289062 87.742188 68.898438 87.742188 68.507812 C 87.742188 68.171875 87.648438 67.820312 87.453125 67.480469 C 87.046875 66.792969 85.730469 66.167969 84.414062 65.546875 C 82.6875 64.730469 80.957031 63.914062 80.09375 62.433594 C 79.617188 61.625 79.402344 60.769531 79.398438 59.929688 L 79.398438 59.925781 C 79.394531 58.984375 79.660156 58.074219 80.132812 57.285156 C 80.597656 56.507812 81.265625 55.839844 82.066406 55.367188 C 82.527344 55.101562 83.027344 54.894531 83.5625 54.769531 Z M 47.128906 31.445312 C 44.359375 31.445312 41.851562 32.570312 40.039062 34.382812 C 38.222656 36.199219 37.101562 38.707031 37.101562 41.476562 C 37.101562 44.238281 38.222656 46.746094 40.039062 48.5625 L 40.042969 48.570312 C 41.863281 50.382812 44.367188 51.507812 47.128906 51.507812 C 49.898438 51.507812 52.410156 50.382812 54.222656 48.570312 C 56.039062 46.753906 57.160156 44.246094 57.160156 41.476562 C 57.160156 38.714844 56.039062 36.207031 54.222656 34.390625 L 54.21875 34.382812 C 52.398438 32.570312 49.894531 31.445312 47.128906 31.445312 Z M 52.136719 36.464844 C 50.859375 35.191406 49.089844 34.398438 47.128906 34.398438 C 45.175781 34.398438 43.40625 35.191406 42.125 36.472656 C 40.847656 37.75 40.054688 39.523438 40.054688 41.476562 C 40.054688 43.433594 40.84375 45.203125 42.121094 46.480469 L 42.125 46.488281 C 43.402344 47.765625 45.171875 48.554688 47.128906 48.554688 C 49.085938 48.554688 50.855469 47.761719 52.136719 46.480469 C 53.414062 45.203125 54.207031 43.429688 54.207031 41.476562 C 54.207031 39.519531 53.417969 37.75 52.140625 36.472656 Z M 29.050781 39.71875 L 29.050781 43.230469 L 32.320312 44.058594 C 32.824219 44.1875 33.246094 44.578125 33.386719 45.113281 C 33.546875 45.71875 33.75 46.3125 33.988281 46.890625 C 34.230469 47.476562 34.511719 48.042969 34.824219 48.582031 C 35.082031 49.03125 35.097656 49.601562 34.8125 50.074219 L 33.074219 52.992188 L 35.5625 55.480469 L 38.425781 53.773438 C 38.875 53.476562 39.476562 53.441406 39.976562 53.730469 C 40.53125 54.050781 41.101562 54.335938 41.6875 54.574219 C 42.242188 54.804688 42.816406 55 43.40625 55.15625 C 43.949219 55.261719 44.410156 55.671875 44.550781 56.246094 L 45.375 59.492188 L 48.890625 59.492188 L 49.710938 56.246094 C 49.839844 55.738281 50.230469 55.316406 50.773438 55.175781 C 51.390625 55.015625 51.992188 54.8125 52.578125 54.574219 C 53.160156 54.335938 53.730469 54.050781 54.289062 53.730469 C 54.734375 53.472656 55.304688 53.457031 55.78125 53.742188 L 58.699219 55.480469 L 61.1875 52.992188 L 59.484375 50.132812 C 59.1875 49.679688 59.148438 49.082031 59.4375 48.582031 C 59.753906 48.042969 60.03125 47.476562 60.273438 46.890625 C 60.503906 46.339844 60.703125 45.765625 60.859375 45.171875 C 60.980469 44.640625 61.382812 44.199219 61.945312 44.058594 L 65.203125 43.234375 L 65.203125 39.71875 L 61.945312 38.894531 C 61.441406 38.765625 61.019531 38.375 60.875 37.839844 C 60.714844 37.222656 60.511719 36.625 60.273438 36.054688 C 60.039062 35.480469 59.757812 34.917969 59.4375 34.371094 C 59.183594 33.921875 59.167969 33.351562 59.449219 32.878906 L 61.1875 29.960938 L 58.699219 27.472656 L 55.835938 29.179688 C 55.386719 29.476562 54.785156 29.511719 54.289062 29.222656 C 53.730469 28.902344 53.160156 28.617188 52.578125 28.378906 C 52.019531 28.148438 51.445312 27.953125 50.855469 27.796875 C 50.3125 27.6875 49.851562 27.28125 49.710938 26.707031 L 48.886719 23.453125 L 45.375 23.453125 L 44.550781 26.707031 C 44.421875 27.210938 44.03125 27.636719 43.492188 27.773438 C 42.871094 27.9375 42.269531 28.136719 41.6875 28.378906 C 41.101562 28.617188 40.53125 28.902344 39.976562 29.222656 C 39.527344 29.480469 38.957031 29.496094 38.480469 29.210938 L 35.5625 27.472656 L 33.074219 29.960938 L 34.777344 32.820312 C 35.078125 33.273438 35.113281 33.871094 34.824219 34.371094 C 34.511719 34.910156 34.230469 35.472656 33.988281 36.058594 C 33.753906 36.621094 33.558594 37.195312 33.402344 37.78125 C 33.28125 38.308594 32.878906 38.753906 32.320312 38.894531 Z M 29.050781 39.71875 " fill-opacity="1" fill-rule="evenodd"/><path fill="#e8e7e6" d="M 26.109375 41.476562 L 26.109375 38.570312 C 26.109375 37.882812 26.585938 37.304688 27.222656 37.144531 L 30.785156 36.238281 C 30.929688 35.792969 31.089844 35.355469 31.265625 34.929688 C 31.445312 34.5 31.640625 34.078125 31.851562 33.664062 L 29.957031 30.484375 C 29.605469 29.890625 29.714844 29.152344 30.179688 28.6875 L 34.285156 24.574219 C 34.800781 24.058594 35.605469 24.003906 36.179688 24.414062 L 39.269531 26.253906 C 39.6875 26.039062 40.121094 25.839844 40.566406 25.65625 C 41 25.476562 41.445312 25.316406 41.898438 25.171875 L 42.796875 21.625 C 42.972656 20.921875 43.632812 20.460938 44.332031 20.511719 L 50.035156 20.511719 C 50.726562 20.511719 51.304688 20.988281 51.464844 21.628906 L 52.363281 25.171875 C 52.816406 25.316406 53.261719 25.476562 53.695312 25.65625 C 54.140625 25.839844 54.574219 26.039062 54.996094 26.253906 L 58.179688 24.355469 C 58.769531 24.003906 59.507812 24.113281 59.976562 24.578125 L 64.085938 28.683594 C 64.601562 29.199219 64.65625 30.003906 64.246094 30.578125 L 62.410156 33.664062 C 62.621094 34.074219 62.816406 34.5 62.996094 34.933594 C 63.175781 35.363281 63.335938 35.796875 63.476562 36.238281 L 67.039062 37.140625 C 67.710938 37.308594 68.15625 37.910156 68.15625 38.570312 L 68.160156 44.382812 C 68.160156 45.097656 67.644531 45.699219 66.964844 45.832031 L 63.476562 46.714844 C 63.335938 47.152344 63.175781 47.589844 62.996094 48.015625 L 62.996094 48.023438 C 62.820312 48.453125 62.621094 48.875 62.410156 49.289062 L 64.304688 52.46875 C 64.660156 53.0625 64.550781 53.800781 64.082031 54.265625 L 59.976562 58.378906 C 59.460938 58.894531 58.65625 58.949219 58.082031 58.539062 L 54.996094 56.699219 C 54.574219 56.914062 54.140625 57.113281 53.695312 57.296875 C 53.261719 57.476562 52.816406 57.636719 52.363281 57.78125 L 51.46875 61.324219 C 51.300781 61.996094 50.699219 62.441406 50.035156 62.441406 L 44.226562 62.445312 C 43.507812 62.445312 42.910156 61.929688 42.777344 61.25 L 41.898438 57.78125 C 41.445312 57.636719 41 57.476562 40.566406 57.296875 C 40.121094 57.113281 39.6875 56.914062 39.269531 56.699219 L 36.082031 58.597656 C 35.492188 58.949219 34.753906 58.839844 34.289062 58.375 L 30.175781 54.269531 C 29.660156 53.753906 29.605469 52.949219 30.015625 52.371094 L 31.851562 49.289062 C 31.640625 48.875 31.445312 48.453125 31.265625 48.023438 C 31.089844 47.597656 30.929688 47.160156 30.785156 46.714844 L 27.222656 45.8125 C 26.515625 45.636719 26.058594 44.976562 26.109375 44.273438 Z M 77.097656 18.835938 C 76.601562 18.191406 76.726562 17.265625 77.371094 16.769531 C 78.019531 16.277344 78.945312 16.402344 79.4375 17.046875 L 81.601562 19.871094 L 83.769531 17.046875 C 84.261719 16.402344 85.1875 16.277344 85.835938 16.769531 C 86.480469 17.265625 86.605469 18.191406 86.109375 18.835938 L 83.078125 22.785156 L 83.078125 28.367188 L 86.214844 28.367188 C 86.183594 25.445312 87.601562 23.265625 89.105469 20.957031 C 90.523438 18.777344 92.035156 16.460938 92.035156 13.390625 C 92.035156 10.511719 90.867188 7.902344 88.976562 6.015625 C 87.089844 4.128906 84.484375 2.960938 81.601562 2.960938 C 78.722656 2.960938 76.113281 4.128906 74.226562 6.015625 C 72.339844 7.902344 71.171875 10.511719 71.171875 13.390625 C 71.171875 16.460938 72.679688 18.777344 74.101562 20.957031 C 75.601562 23.265625 77.023438 25.445312 76.992188 28.367188 L 80.125 28.367188 L 80.125 22.785156 Z M 77.03125 31.320312 C 77.035156 32.082031 77.03125 32.859375 77.03125 33.589844 L 77.03125 34.230469 L 78.367188 34.230469 C 79.109375 34.230469 79.726562 34.78125 79.828125 35.496094 C 79.871094 35.714844 79.949219 35.917969 80.054688 36.089844 C 80.101562 36.164062 80.152344 36.234375 80.207031 36.300781 L 82.996094 36.300781 C 83.050781 36.234375 83.101562 36.164062 83.148438 36.089844 C 83.261719 35.90625 83.34375 35.691406 83.386719 35.453125 C 83.511719 34.738281 84.136719 34.230469 84.839844 34.234375 L 86.175781 34.230469 L 86.171875 33.601562 C 86.171875 32.867188 86.171875 32.085938 86.175781 31.320312 C 83.125 31.320312 80.078125 31.320312 77.03125 31.320312 Z M 74.042969 28.621094 L 74.042969 28.507812 C 74.125 26.390625 72.914062 24.53125 71.632812 22.5625 C 69.976562 20.019531 68.21875 17.320312 68.21875 13.390625 C 68.21875 9.695312 69.71875 6.347656 72.140625 3.925781 C 74.5625 1.503906 77.90625 0.0078125 81.601562 0.0078125 C 85.296875 0.0078125 88.644531 1.503906 91.066406 3.925781 C 93.488281 6.347656 94.988281 9.695312 94.988281 13.390625 C 94.988281 17.320312 93.230469 20.019531 91.574219 22.5625 C 90.292969 24.53125 89.082031 26.390625 89.164062 28.507812 L 89.164062 28.609375 C 89.105469 30.246094 89.113281 31.972656 89.117188 33.601562 L 89.117188 34.632812 L 89.121094 34.632812 C 89.121094 35.273438 88.878906 35.863281 88.484375 36.3125 L 88.375 36.4375 C 87.910156 36.898438 87.269531 37.183594 86.566406 37.183594 L 85.898438 37.183594 C 85.824219 37.339844 85.742188 37.492188 85.652344 37.636719 C 85.359375 38.109375 84.984375 38.53125 84.550781 38.875 C 84.289062 39.109375 83.941406 39.253906 83.5625 39.253906 L 79.644531 39.253906 L 79.644531 39.246094 C 79.335938 39.25 79.03125 39.152344 78.765625 38.957031 C 78.285156 38.601562 77.871094 38.148438 77.550781 37.636719 C 77.460938 37.488281 77.378906 37.339844 77.304688 37.183594 L 76.636719 37.183594 C 75.992188 37.183594 75.402344 36.941406 74.953125 36.542969 L 74.832031 36.4375 C 74.371094 35.976562 74.082031 35.335938 74.082031 34.632812 L 74.089844 34.632812 L 74.089844 33.589844 C 74.089844 31.972656 74.101562 30.246094 74.042969 28.621094 Z M 11.378906 90.960938 C 12.894531 90.777344 14.34375 91.226562 15.460938 92.101562 C 16.582031 92.980469 17.367188 94.285156 17.550781 95.804688 C 17.734375 97.320312 17.285156 98.769531 16.40625 99.886719 C 15.527344 101.007812 14.222656 101.792969 12.703125 101.976562 C 11.191406 102.160156 9.742188 101.710938 8.621094 100.835938 C 7.503906 99.957031 6.714844 98.652344 6.53125 97.132812 C 6.347656 95.617188 6.800781 94.167969 7.675781 93.050781 C 8.554688 91.929688 9.859375 91.144531 11.378906 90.960938 Z M 13.648438 94.421875 C 13.125 94.011719 12.441406 93.800781 11.722656 93.890625 C 11.011719 93.976562 10.402344 94.339844 9.996094 94.859375 C 9.585938 95.382812 9.375 96.066406 9.460938 96.785156 C 9.546875 97.5 9.914062 98.109375 10.433594 98.515625 C 10.957031 98.925781 11.640625 99.132812 12.359375 99.046875 C 13.070312 98.960938 13.679688 98.597656 14.089844 98.078125 C 14.496094 97.554688 14.707031 96.871094 14.621094 96.152344 C 14.535156 95.4375 14.167969 94.828125 13.648438 94.421875 Z M 80.585938 91.503906 C 80.863281 89.867188 80.5 88.257812 79.667969 86.945312 C 78.832031 85.621094 77.515625 84.601562 75.902344 84.152344 C 75.835938 84.132812 75.769531 84.113281 75.695312 84.097656 L 53.066406 79.722656 C 49.097656 75.859375 44.105469 73.773438 38.972656 73.058594 C 33.765625 72.335938 28.402344 73.027344 23.832031 74.707031 L 23.832031 74.683594 C 23.832031 73.351562 23.285156 72.144531 22.410156 71.265625 C 21.535156 70.390625 20.324219 69.847656 18.992188 69.847656 L 5.089844 69.847656 C 3.757812 69.847656 2.546875 70.390625 1.671875 71.265625 C 0.796875 72.144531 0.25 73.351562 0.25 74.683594 L 0.25 104.199219 C 0.25 105.53125 0.796875 106.738281 1.671875 107.617188 C 2.546875 108.492188 3.757812 109.035156 5.089844 109.035156 L 18.992188 109.035156 C 20.324219 109.035156 21.535156 108.492188 22.410156 107.617188 C 23.074219 106.953125 23.546875 106.097656 23.738281 105.140625 L 72.882812 114.769531 C 73.210938 114.832031 73.566406 114.785156 73.882812 114.609375 L 111.015625 93.898438 C 111.09375 93.859375 111.171875 93.8125 111.246094 93.761719 C 112.53125 92.828125 113.390625 91.5 113.753906 90.050781 C 114.117188 88.605469 113.988281 87.03125 113.296875 85.601562 C 112.605469 84.171875 111.453125 83.09375 110.09375 82.476562 C 108.734375 81.863281 107.164062 81.714844 105.636719 82.140625 L 105.515625 82.179688 Z M 23.832031 102.152344 L 23.832031 77.871094 C 28.175781 76.0625 33.453125 75.265625 38.570312 75.980469 C 43.246094 76.628906 47.777344 78.550781 51.300781 82.117188 C 51.515625 82.339844 51.789062 82.476562 52.070312 82.535156 L 75.140625 86.996094 C 76.011719 87.238281 76.722656 87.796875 77.175781 88.515625 C 77.644531 89.257812 77.84375 90.175781 77.664062 91.101562 C 77.3125 92.917969 75.628906 94.171875 73.773438 93.960938 L 51.390625 89.632812 C 50.589844 89.480469 49.820312 90.007812 49.667969 90.804688 C 49.511719 91.605469 50.039062 92.378906 50.835938 92.53125 L 73.320312 96.875 C 75.023438 97.097656 76.671875 96.636719 77.972656 95.703125 C 78.042969 95.652344 78.109375 95.597656 78.179688 95.546875 L 106.472656 84.964844 C 107.296875 84.746094 108.144531 84.832031 108.882812 85.164062 C 109.628906 85.503906 110.265625 86.097656 110.644531 86.882812 C 111.023438 87.667969 111.09375 88.535156 110.890625 89.335938 C 110.695312 90.113281 110.242188 90.828125 109.5625 91.335938 L 72.925781 111.773438 Z M 18.992188 72.800781 L 5.089844 72.800781 C 4.574219 72.800781 4.101562 73.015625 3.757812 73.355469 C 3.417969 73.695312 3.207031 74.167969 3.207031 74.683594 L 3.207031 104.199219 C 3.207031 104.714844 3.417969 105.1875 3.757812 105.527344 C 4.101562 105.871094 4.574219 106.082031 5.089844 106.082031 L 18.992188 106.082031 C 19.511719 106.082031 19.980469 105.871094 20.324219 105.527344 C 20.664062 105.1875 20.878906 104.714844 20.878906 104.199219 L 20.878906 74.683594 C 20.878906 74.167969 20.664062 73.695312 20.324219 73.355469 C 19.980469 73.015625 19.511719 72.800781 18.992188 72.800781 Z M 85.039062 46.898438 C 80.261719 46.898438 75.929688 48.835938 72.796875 51.96875 C 69.664062 55.105469 67.726562 59.433594 67.726562 64.214844 C 67.726562 68.996094 69.664062 73.324219 72.796875 76.457031 C 75.929688 79.589844 80.261719 81.527344 85.039062 81.527344 C 89.820312 81.527344 94.152344 79.589844 97.285156 76.457031 C 100.417969 73.324219 102.355469 68.996094 102.355469 64.214844 C 102.355469 59.433594 100.417969 55.105469 97.285156 51.96875 C 94.152344 48.835938 89.820312 46.898438 85.039062 46.898438 Z M 95.195312 54.058594 C 97.792969 56.65625 99.402344 60.246094 99.402344 64.214844 C 99.402344 68.179688 97.792969 71.769531 95.195312 74.367188 C 92.597656 76.964844 89.007812 78.574219 85.039062 78.574219 C 81.074219 78.574219 77.484375 76.964844 74.886719 74.367188 C 72.289062 71.769531 70.679688 68.179688 70.679688 64.214844 C 70.679688 60.246094 72.289062 56.65625 74.886719 54.058594 C 77.484375 51.460938 81.074219 49.851562 85.039062 49.851562 C 89.007812 49.851562 92.597656 51.460938 95.195312 54.058594 Z M 83.5625 53.296875 C 83.5625 52.480469 84.226562 51.820312 85.039062 51.820312 C 85.855469 51.820312 86.519531 52.480469 86.519531 53.296875 L 86.519531 54.820312 C 87.539062 55.0625 88.375 55.523438 89.035156 56.195312 L 89.042969 56.203125 C 90.023438 57.207031 90.539062 58.613281 90.617188 60.417969 C 90.648438 61.230469 90.015625 61.917969 89.203125 61.949219 C 88.390625 61.980469 87.707031 61.347656 87.671875 60.535156 C 87.628906 59.484375 87.386719 58.722656 86.933594 58.257812 C 86.171875 57.488281 84.5 57.355469 83.554688 57.90625 C 83.183594 58.125 82.875 58.433594 82.660156 58.792969 C 82.457031 59.136719 82.339844 59.527344 82.339844 59.917969 C 82.339844 60.257812 82.433594 60.605469 82.628906 60.945312 C 83.035156 61.636719 84.351562 62.257812 85.667969 62.882812 C 87.394531 63.699219 89.121094 64.515625 89.988281 65.992188 C 90.464844 66.804688 90.679688 67.660156 90.683594 68.496094 C 90.6875 69.441406 90.421875 70.351562 89.949219 71.144531 C 89.484375 71.921875 88.816406 72.585938 88.011719 73.058594 C 87.554688 73.328125 87.054688 73.53125 86.519531 73.660156 L 86.519531 75.132812 C 86.519531 75.949219 85.855469 76.609375 85.039062 76.609375 C 84.226562 76.609375 83.5625 75.949219 83.5625 75.132812 L 83.5625 73.605469 C 82.539062 73.363281 81.699219 72.902344 81.035156 72.222656 L 81.023438 72.210938 C 80.050781 71.207031 79.542969 69.800781 79.464844 68.007812 C 79.433594 67.195312 80.066406 66.511719 80.878906 66.480469 C 81.691406 66.449219 82.375 67.082031 82.40625 67.890625 C 82.453125 68.941406 82.691406 69.703125 83.140625 70.164062 L 83.148438 70.167969 C 83.90625 70.941406 85.585938 71.070312 86.523438 70.519531 C 86.898438 70.300781 87.207031 69.992188 87.421875 69.632812 C 87.625 69.289062 87.742188 68.898438 87.742188 68.507812 C 87.742188 68.171875 87.648438 67.820312 87.453125 67.480469 C 87.046875 66.792969 85.730469 66.167969 84.414062 65.546875 C 82.6875 64.730469 80.957031 63.914062 80.09375 62.433594 C 79.617188 61.625 79.402344 60.769531 79.398438 59.929688 L 79.398438 59.925781 C 79.394531 58.984375 79.660156 58.074219 80.132812 57.285156 C 80.597656 56.507812 81.265625 55.839844 82.066406 55.367188 C 82.527344 55.101562 83.027344 54.894531 83.5625 54.769531 Z M 47.128906 31.445312 C 44.359375 31.445312 41.851562 32.570312 40.039062 34.382812 C 38.222656 36.199219 37.101562 38.707031 37.101562 41.476562 C 37.101562 44.238281 38.222656 46.746094 40.039062 48.5625 L 40.042969 48.570312 C 41.863281 50.382812 44.367188 51.507812 47.128906 51.507812 C 49.898438 51.507812 52.410156 50.382812 54.222656 48.570312 C 56.039062 46.753906 57.160156 44.246094 57.160156 41.476562 C 57.160156 38.714844 56.039062 36.207031 54.222656 34.390625 L 54.21875 34.382812 C 52.398438 32.570312 49.894531 31.445312 47.128906 31.445312 Z M 52.136719 36.464844 C 50.859375 35.191406 49.089844 34.398438 47.128906 34.398438 C 45.175781 34.398438 43.40625 35.191406 42.125 36.472656 C 40.847656 37.75 40.054688 39.523438 40.054688 41.476562 C 40.054688 43.433594 40.84375 45.203125 42.121094 46.480469 L 42.125 46.488281 C 43.402344 47.765625 45.171875 48.554688 47.128906 48.554688 C 49.085938 48.554688 50.855469 47.761719 52.136719 46.480469 C 53.414062 45.203125 54.207031 43.429688 54.207031 41.476562 C 54.207031 39.519531 53.417969 37.75 52.140625 36.472656 Z M 29.050781 39.71875 L 29.050781 43.230469 L 32.320312 44.058594 C 32.824219 44.1875 33.246094 44.578125 33.386719 45.113281 C 33.546875 45.71875 33.75 46.3125 33.988281 46.890625 C 34.230469 47.476562 34.511719 48.042969 34.824219 48.582031 C 35.082031 49.03125 35.097656 49.601562 34.8125 50.074219 L 33.074219 52.992188 L 35.5625 55.480469 L 38.425781 53.773438 C 38.875 53.476562 39.476562 53.441406 39.976562 53.730469 C 40.53125 54.050781 41.101562 54.335938 41.6875 54.574219 C 42.242188 54.804688 42.816406 55 43.40625 55.15625 C 43.949219 55.261719 44.410156 55.671875 44.550781 56.246094 L 45.375 59.492188 L 48.890625 59.492188 L 49.710938 56.246094 C 49.839844 55.738281 50.230469 55.316406 50.773438 55.175781 C 51.390625 55.015625 51.992188 54.8125 52.578125 54.574219 C 53.160156 54.335938 53.730469 54.050781 54.289062 53.730469 C 54.734375 53.472656 55.304688 53.457031 55.78125 53.742188 L 58.699219 55.480469 L 61.1875 52.992188 L 59.484375 50.132812 C 59.1875 49.679688 59.148438 49.082031 59.4375 48.582031 C 59.753906 48.042969 60.03125 47.476562 60.273438 46.890625 C 60.503906 46.339844 60.703125 45.765625 60.859375 45.171875 C 60.980469 44.640625 61.382812 44.199219 61.945312 44.058594 L 65.203125 43.234375 L 65.203125 39.71875 L 61.945312 38.894531 C 61.441406 38.765625 61.019531 38.375 60.875 37.839844 C 60.714844 37.222656 60.511719 36.625 60.273438 36.054688 C 60.039062 35.480469 59.757812 34.917969 59.4375 34.371094 C 59.183594 33.921875 59.167969 33.351562 59.449219 32.878906 L 61.1875 29.960938 L 58.699219 27.472656 L 55.835938 29.179688 C 55.386719 29.476562 54.785156 29.511719 54.289062 29.222656 C 53.730469 28.902344 53.160156 28.617188 52.578125 28.378906 C 52.019531 28.148438 51.445312 27.953125 50.855469 27.796875 C 50.3125 27.6875 49.851562 27.28125 49.710938 26.707031 L 48.886719 23.453125 L 45.375 23.453125 L 44.550781 26.707031 C 44.421875 27.210938 44.03125 27.636719 43.492188 27.773438 C 42.871094 27.9375 42.269531 28.136719 41.6875 28.378906 C 41.101562 28.617188 40.53125 28.902344 39.976562 29.222656 C 39.527344 29.480469 38.957031 29.496094 38.480469 29.210938 L 35.5625 27.472656 L 33.074219 29.960938 L 34.777344 32.820312 C 35.078125 33.273438 35.113281 33.871094 34.824219 34.371094 C 34.511719 34.910156 34.230469 35.472656 33.988281 36.058594 C 33.753906 36.621094 33.558594 37.195312 33.402344 37.78125 C 33.28125 38.308594 32.878906 38.753906 32.320312 38.894531 Z M 29.050781 39.71875 " fill-opacity="1" fill-rule="evenodd"/></g></svg>