<svg xmlns="http://www.w3.org/2000/svg" xmlns:xlink="http://www.w3.org/1999/xlink" width="197" zoomAndPan="magnify" viewBox="0 0 147.75 147.750002" height="197" preserveAspectRatio="xMidYMid meet" version="1.0"><defs><clipPath id="ad70287a09"><path d="M 37 131 L 105 131 L 105 146.75 L 37 146.75 Z M 37 131 " clip-rule="nonzero"/></clipPath><clipPath id="b3518670a7"><path d="M 37 131 L 105 131 L 105 146.75 L 37 146.75 Z M 37 131 " clip-rule="nonzero"/></clipPath></defs><path fill="#e8e7e6" d="M 119.863281 102.972656 L 22.3125 102.972656 C 18.828125 102.972656 15.546875 101.609375 13.054688 99.117188 C 10.566406 96.628906 9.199219 93.34375 9.199219 89.863281 L 9.199219 22.367188 C 9.199219 18.886719 10.566406 15.601562 13.054688 13.113281 C 15.546875 10.621094 18.828125 9.253906 22.3125 9.253906 L 76.167969 9.253906 C 77.226562 9.253906 78.0625 10.113281 78.0625 11.171875 C 78.0625 12.230469 77.226562 13.066406 76.167969 13.066406 L 22.3125 13.066406 C 17.199219 13.066406 13.011719 17.253906 13.011719 22.367188 L 13.011719 89.863281 C 13.011719 94.996094 17.199219 99.160156 22.3125 99.160156 L 119.863281 99.160156 C 125.019531 99.160156 129.1875 94.996094 129.1875 89.863281 L 129.1875 50.527344 C 129.1875 49.492188 130.046875 48.632812 131.101562 48.632812 C 132.160156 48.632812 133.019531 49.492188 133.019531 50.527344 L 133.019531 89.863281 C 133.019531 93.34375 131.632812 96.628906 129.140625 99.117188 C 126.652344 101.609375 123.367188 102.972656 119.863281 102.972656 Z M 119.863281 102.972656 " fill-opacity="1" fill-rule="evenodd"/><path fill="#e8e7e6" d="M 119.753906 87.792969 C 118.695312 87.792969 117.835938 86.933594 117.835938 85.875 L 117.835938 48.742188 C 117.835938 47.6875 118.695312 46.847656 119.753906 46.847656 C 120.8125 46.847656 121.648438 47.6875 121.648438 48.742188 L 121.648438 85.875 C 121.648438 86.933594 120.8125 87.792969 119.753906 87.792969 Z M 22.464844 87.792969 C 21.40625 87.792969 20.546875 86.933594 20.546875 85.875 L 20.546875 28.050781 C 20.546875 23.929688 23.898438 20.582031 27.996094 20.582031 L 69.886719 20.582031 C 70.945312 20.582031 71.804688 21.441406 71.804688 22.5 C 71.804688 23.554688 70.945312 24.394531 69.886719 24.394531 L 27.996094 24.394531 C 25.992188 24.394531 24.359375 26.046875 24.359375 28.050781 L 24.359375 85.875 C 24.359375 86.933594 23.523438 87.792969 22.464844 87.792969 Z M 22.464844 87.792969 " fill-opacity="1" fill-rule="evenodd"/><path fill="#e8e7e6" d="M 131.101562 87.792969 L 11.117188 87.792969 C 10.058594 87.792969 9.199219 86.933594 9.199219 85.875 C 9.199219 84.816406 10.058594 83.980469 11.117188 83.980469 L 131.101562 83.980469 C 132.160156 83.980469 133.019531 84.816406 133.019531 85.875 C 133.019531 86.933594 132.160156 87.792969 131.101562 87.792969 Z M 131.101562 87.792969 " fill-opacity="1" fill-rule="evenodd"/><path fill="#e8e7e6" d="M 72.816406 95.394531 L 69.378906 95.394531 C 68.34375 95.394531 67.484375 94.535156 67.484375 93.476562 C 67.484375 92.441406 68.34375 91.582031 69.378906 91.582031 L 72.816406 91.582031 C 73.875 91.582031 74.734375 92.441406 74.734375 93.476562 C 74.734375 94.535156 73.875 95.394531 72.816406 95.394531 Z M 72.816406 95.394531 " fill-opacity="1" fill-rule="evenodd"/><path fill="#e8e7e6" d="M 98.84375 117.519531 L 43.378906 117.519531 C 38.289062 117.519531 34.167969 113.398438 34.167969 108.351562 L 34.167969 101.058594 C 34.167969 100.019531 35.027344 99.160156 36.082031 99.160156 C 37.121094 99.160156 37.980469 100.019531 37.980469 101.058594 L 37.980469 108.351562 C 37.980469 111.304688 40.402344 113.707031 43.378906 113.707031 L 98.84375 113.707031 C 101.796875 113.707031 104.199219 111.304688 104.199219 108.351562 L 104.199219 101.058594 C 104.199219 100.019531 105.058594 99.160156 106.113281 99.160156 C 107.171875 99.160156 108.007812 100.019531 108.007812 101.058594 L 108.007812 108.351562 C 108.007812 113.398438 103.910156 117.519531 98.84375 117.519531 Z M 98.84375 117.519531 " fill-opacity="1" fill-rule="evenodd"/><path fill="#e8e7e6" d="M 50.980469 135.609375 C 50.386719 135.609375 49.8125 135.34375 49.4375 134.839844 C 48.820312 134 48.996094 132.789062 49.855469 132.171875 C 57.214844 126.773438 54.441406 116.21875 54.417969 116.109375 C 54.132812 115.09375 54.726562 114.058594 55.738281 113.773438 C 56.753906 113.484375 57.8125 114.101562 58.097656 115.117188 C 58.121094 115.25 58.980469 118.421875 58.714844 122.453125 C 58.339844 127.917969 56.046875 132.347656 52.105469 135.257812 C 51.773438 135.5 51.378906 135.609375 50.980469 135.609375 Z M 50.980469 135.609375 " fill-opacity="1" fill-rule="evenodd"/><path fill="#e8e7e6" d="M 91.238281 135.609375 C 90.84375 135.609375 90.445312 135.5 90.09375 135.257812 C 86.148438 132.347656 83.878906 127.917969 83.503906 122.453125 C 83.21875 118.421875 84.078125 115.25 84.121094 115.117188 C 84.410156 114.101562 85.445312 113.484375 86.457031 113.773438 C 87.472656 114.058594 88.089844 115.09375 87.800781 116.109375 C 87.78125 116.175781 87.074219 118.929688 87.316406 122.300781 C 87.625 126.617188 89.324219 129.945312 92.363281 132.171875 C 93.203125 132.789062 93.398438 134 92.761719 134.839844 C 92.386719 135.34375 91.8125 135.609375 91.238281 135.609375 Z M 91.238281 135.609375 " fill-opacity="1" fill-rule="evenodd"/><g clip-path="url(#ad70287a09)"><path fill="#e8e7e6" d="M 97.386719 146.890625 L 44.808594 146.890625 C 40.644531 146.890625 37.273438 143.519531 37.273438 139.355469 C 37.273438 135.191406 40.644531 131.796875 44.808594 131.796875 L 97.386719 131.796875 C 101.554688 131.796875 104.945312 135.191406 104.945312 139.355469 C 104.945312 143.519531 101.554688 146.890625 97.386719 146.890625 Z M 44.808594 135.609375 C 42.761719 135.609375 41.085938 137.304688 41.085938 139.355469 C 41.085938 141.40625 42.761719 143.078125 44.808594 143.078125 L 97.386719 143.078125 C 99.4375 143.078125 101.132812 141.40625 101.132812 139.355469 C 101.132812 137.328125 99.414062 135.609375 97.386719 135.609375 Z M 44.808594 135.609375 " fill-opacity="1" fill-rule="evenodd"/></g><path fill="#e8e7e6" d="M 44.324219 110.246094 L 44.238281 110.246094 C 43.179688 110.246094 42.320312 109.386719 42.320312 108.351562 C 42.320312 107.292969 43.179688 106.433594 44.238281 106.433594 L 44.324219 106.433594 C 45.382812 106.433594 46.242188 107.292969 46.242188 108.351562 C 46.242188 109.386719 45.382812 110.246094 44.324219 110.246094 Z M 44.324219 110.246094 " fill-opacity="1" fill-rule="evenodd"/><path fill="#e8e7e6" d="M 54 110.246094 L 53.933594 110.246094 C 52.875 110.246094 52.039062 109.386719 52.039062 108.351562 C 52.039062 107.292969 52.875 106.433594 53.933594 106.433594 L 54 106.433594 C 55.058594 106.433594 55.917969 107.292969 55.917969 108.351562 C 55.917969 109.386719 55.058594 110.246094 54 110.246094 Z M 54 110.246094 " fill-opacity="1" fill-rule="evenodd"/><path fill="#e8e7e6" d="M 63.71875 110.246094 L 63.605469 110.246094 C 62.570312 110.246094 61.710938 109.386719 61.710938 108.351562 C 61.710938 107.292969 62.570312 106.433594 63.605469 106.433594 L 63.71875 106.433594 C 64.773438 106.433594 65.613281 107.292969 65.613281 108.351562 C 65.613281 109.386719 64.773438 110.246094 63.71875 110.246094 Z M 63.71875 110.246094 " fill-opacity="1" fill-rule="evenodd"/><path fill="#e8e7e6" d="M 78.769531 53.21875 C 77.953125 53.21875 77.070312 53.152344 76.167969 52.996094 C 72.707031 52.421875 70.195312 50.199219 68.875 46.519531 C 67.992188 44.027344 67.96875 41.714844 67.992188 41.472656 L 67.992188 22.585938 C 67.992188 19.371094 69.46875 14.476562 72.707031 11.347656 C 74.226562 9.894531 76.210938 8.8125 78.570312 8.132812 C 80.839844 7.492188 83 7.359375 84.410156 7.359375 L 121.253906 7.359375 C 122.664062 7.359375 124.84375 7.492188 127.113281 8.132812 C 129.472656 8.8125 131.457031 9.894531 132.953125 11.347656 C 136.195312 14.457031 137.691406 19.371094 137.691406 22.585938 L 137.691406 41.472656 C 137.691406 41.714844 137.671875 44.050781 136.789062 46.519531 C 135.511719 50.175781 132.976562 52.421875 129.515625 52.996094 C 126.320312 53.527344 123.480469 53.105469 120.835938 51.71875 C 118.410156 50.441406 116.425781 48.5 114.753906 46.761719 C 114.023438 46.011719 114.046875 44.800781 114.796875 44.070312 C 115.566406 43.324219 116.757812 43.34375 117.507812 44.117188 C 120.921875 47.640625 123.742188 50.085938 128.898438 49.226562 C 133.902344 48.414062 133.878906 41.582031 133.859375 41.492188 C 133.859375 41.492188 133.859375 41.492188 133.859375 41.472656 L 133.859375 22.585938 C 133.859375 20.539062 132.910156 16.59375 130.308594 14.101562 C 127.578125 11.457031 123.058594 11.171875 121.253906 11.171875 L 84.410156 11.171875 C 82.601562 11.171875 78.128906 11.457031 75.351562 14.101562 C 73.015625 16.351562 71.804688 20.074219 71.804688 22.585938 L 71.804688 41.472656 C 71.804688 41.492188 71.804688 41.492188 71.804688 41.492188 C 71.804688 41.515625 71.804688 43.390625 72.507812 45.328125 C 73.347656 47.621094 74.734375 48.898438 76.785156 49.226562 C 81.917969 50.066406 84.761719 47.640625 88.199219 44.09375 C 88.925781 43.34375 90.136719 43.324219 90.886719 44.070312 C 91.660156 44.800781 91.660156 46.011719 90.929688 46.761719 C 87.605469 50.175781 84.144531 53.21875 78.769531 53.21875 Z M 106.863281 42.351562 L 98.796875 42.351562 C 97.742188 42.351562 96.882812 41.492188 96.882812 40.457031 C 96.882812 39.402344 97.742188 38.539062 98.796875 38.539062 L 106.863281 38.539062 C 107.921875 38.539062 108.78125 39.402344 108.78125 40.457031 C 108.78125 41.492188 107.921875 42.351562 106.863281 42.351562 Z M 106.863281 42.351562 " fill-opacity="1" fill-rule="evenodd"/><path fill="#e8e7e6" d="M 93.203125 48.699219 C 89.058594 48.699219 85.664062 45.328125 85.664062 41.164062 C 85.664062 37.019531 89.058594 33.628906 93.203125 33.628906 C 97.367188 33.628906 100.738281 37.019531 100.738281 41.164062 C 100.738281 45.328125 97.367188 48.699219 93.203125 48.699219 Z M 93.203125 37.4375 C 91.152344 37.4375 89.5 39.113281 89.5 41.164062 C 89.5 43.210938 91.152344 44.886719 93.203125 44.886719 C 95.273438 44.886719 96.925781 43.210938 96.925781 41.164062 C 96.925781 39.113281 95.273438 37.4375 93.203125 37.4375 Z M 93.203125 37.4375 " fill-opacity="1" fill-rule="evenodd"/><path fill="#e8e7e6" d="M 112.484375 48.699219 C 108.316406 48.699219 104.945312 45.328125 104.945312 41.164062 C 104.945312 39.136719 105.71875 37.242188 107.148438 35.832031 C 108.558594 34.421875 110.457031 33.628906 112.484375 33.628906 C 116.625 33.628906 120.019531 37.019531 120.019531 41.164062 C 120.019531 45.328125 116.625 48.699219 112.484375 48.699219 Z M 112.484375 37.4375 C 110.390625 37.4375 108.757812 39.070312 108.757812 41.164062 C 108.757812 43.210938 110.433594 44.886719 112.484375 44.886719 C 114.53125 44.886719 116.207031 43.210938 116.207031 41.164062 C 116.207031 39.113281 114.53125 37.4375 112.484375 37.4375 Z M 112.484375 37.4375 " fill-opacity="1" fill-rule="evenodd"/><path fill="#e8e7e6" d="M 111.007812 11.171875 C 110.234375 11.171875 109.507812 10.710938 109.222656 9.9375 L 107.238281 4.761719 C 107.019531 4.164062 106.863281 3.921875 106.777344 3.8125 L 98.910156 3.8125 C 98.820312 3.921875 98.667969 4.164062 98.445312 4.761719 L 96.441406 9.9375 C 96.066406 10.929688 94.964844 11.414062 93.972656 11.039062 C 93.003906 10.664062 92.496094 9.5625 92.894531 8.570312 L 94.898438 3.371094 C 95.25 2.445312 96.199219 0 98.820312 0 L 106.863281 0 C 109.484375 0 110.433594 2.445312 110.808594 3.371094 C 110.808594 3.371094 110.808594 3.371094 110.808594 3.394531 L 112.792969 8.570312 C 113.164062 9.5625 112.660156 10.664062 111.691406 11.039062 C 111.445312 11.128906 111.226562 11.171875 111.007812 11.171875 Z M 111.007812 11.171875 " fill-opacity="1" fill-rule="evenodd"/><path fill="#e8e7e6" d="M 84.011719 31.90625 C 82.953125 31.90625 82.09375 31.046875 82.09375 30.011719 L 82.09375 17.628906 C 82.09375 16.570312 82.953125 15.710938 84.011719 15.710938 C 85.070312 15.710938 85.90625 16.570312 85.90625 17.628906 L 85.90625 30.011719 C 85.90625 31.046875 85.070312 31.90625 84.011719 31.90625 Z M 84.011719 31.90625 " fill-opacity="1" fill-rule="evenodd"/><path fill="#e8e7e6" d="M 90.203125 25.714844 L 77.820312 25.714844 C 76.785156 25.714844 75.925781 24.855469 75.925781 23.800781 C 75.925781 22.761719 76.785156 21.902344 77.820312 21.902344 L 90.203125 21.902344 C 91.261719 21.902344 92.121094 22.761719 92.121094 23.800781 C 92.121094 24.855469 91.261719 25.714844 90.203125 25.714844 Z M 90.203125 25.714844 " fill-opacity="1" fill-rule="evenodd"/><path fill="#e8e7e6" d="M 121.671875 19.566406 L 121.648438 19.566406 C 120.613281 19.566406 119.753906 18.707031 119.753906 17.652344 C 119.753906 16.59375 120.613281 15.753906 121.648438 15.753906 L 121.671875 15.753906 C 122.730469 15.753906 123.589844 16.59375 123.589844 17.652344 C 123.589844 18.707031 122.730469 19.566406 121.671875 19.566406 Z M 121.671875 19.566406 " fill-opacity="1" fill-rule="evenodd"/><path fill="#e8e7e6" d="M 121.671875 31.886719 L 121.648438 31.886719 C 120.613281 31.886719 119.753906 31.027344 119.753906 29.992188 C 119.753906 28.933594 120.613281 28.074219 121.648438 28.074219 L 121.671875 28.074219 C 122.730469 28.074219 123.589844 28.933594 123.589844 29.992188 C 123.589844 31.027344 122.730469 31.886719 121.671875 31.886719 Z M 121.671875 31.886719 " fill-opacity="1" fill-rule="evenodd"/><path fill="#e8e7e6" d="M 127.84375 25.738281 C 126.785156 25.738281 125.925781 24.878906 125.925781 23.820312 L 125.925781 23.800781 C 125.925781 22.761719 126.785156 21.902344 127.84375 21.902344 C 128.898438 21.902344 129.738281 22.761719 129.738281 23.800781 L 129.738281 23.820312 C 129.738281 24.878906 128.898438 25.738281 127.84375 25.738281 Z M 127.84375 25.738281 " fill-opacity="1" fill-rule="evenodd"/><path fill="#e8e7e6" d="M 115.5 25.738281 C 114.445312 25.738281 113.605469 24.878906 113.605469 23.820312 L 113.605469 23.800781 C 113.605469 22.761719 114.445312 21.902344 115.5 21.902344 C 116.558594 21.902344 117.417969 22.761719 117.417969 23.800781 L 117.417969 23.820312 C 117.417969 24.878906 116.558594 25.738281 115.5 25.738281 Z M 115.5 25.738281 " fill-opacity="1" fill-rule="evenodd"/><path fill="#e8e7e6" d="M 109.023438 17.960938 L 96.660156 17.960938 C 95.625 17.960938 94.765625 17.101562 94.765625 16.0625 C 94.765625 15.007812 95.625 14.148438 96.660156 14.148438 L 109.023438 14.148438 C 110.082031 14.148438 110.917969 15.007812 110.917969 16.0625 C 110.917969 17.101562 110.082031 17.960938 109.023438 17.960938 Z M 109.023438 17.960938 " fill-opacity="1" fill-rule="evenodd"/><path fill="#e8e7e6" d="M 106.046875 24.238281 L 99.65625 24.238281 C 98.601562 24.238281 97.742188 23.378906 97.742188 22.324219 C 97.742188 21.265625 98.601562 20.425781 99.65625 20.425781 L 106.046875 20.425781 C 107.085938 20.425781 107.945312 21.265625 107.945312 22.324219 C 107.945312 23.378906 107.085938 24.238281 106.046875 24.238281 Z M 106.046875 24.238281 " fill-opacity="1" fill-rule="evenodd"/><path fill="#e8e7e6" d="M 38.484375 47.023438 C 38.066406 47.023438 37.671875 46.894531 37.316406 46.628906 L 29.320312 40.414062 C 28.855469 40.039062 28.589844 39.488281 28.589844 38.894531 C 28.589844 38.320312 28.855469 37.769531 29.320312 37.394531 L 37.316406 31.160156 C 38.132812 30.496094 39.34375 30.652344 39.984375 31.46875 C 40.644531 32.304688 40.492188 33.515625 39.652344 34.15625 L 33.59375 38.894531 L 39.652344 43.609375 C 40.492188 44.269531 40.644531 45.460938 39.984375 46.296875 C 39.609375 46.78125 39.058594 47.023438 38.484375 47.023438 Z M 38.484375 47.023438 " fill-opacity="1" fill-rule="evenodd"/><path fill="#e8e7e6" d="M 53.867188 47.023438 C 53.292969 47.023438 52.742188 46.78125 52.367188 46.296875 C 51.707031 45.460938 51.863281 44.269531 52.699219 43.632812 L 58.738281 38.894531 L 52.675781 34.15625 C 51.863281 33.496094 51.707031 32.304688 52.367188 31.46875 C 53.007812 30.652344 54.21875 30.496094 55.035156 31.160156 L 63.011719 37.394531 C 63.476562 37.769531 63.738281 38.320312 63.738281 38.894531 C 63.738281 39.488281 63.476562 40.039062 63.011719 40.414062 L 55.035156 46.628906 C 54.683594 46.894531 54.285156 47.023438 53.867188 47.023438 Z M 53.867188 47.023438 " fill-opacity="1" fill-rule="evenodd"/><path fill="#e8e7e6" d="M 44.238281 47.023438 C 44.039062 47.023438 43.863281 47.003906 43.664062 46.9375 C 42.652344 46.628906 42.101562 45.570312 42.410156 44.558594 L 46.285156 32.085938 C 46.617188 31.070312 47.675781 30.519531 48.6875 30.828125 C 49.703125 31.136719 50.253906 32.214844 49.945312 33.230469 L 46.042969 45.703125 C 45.800781 46.519531 45.050781 47.023438 44.238281 47.023438 Z M 44.238281 47.023438 " fill-opacity="1" fill-rule="evenodd"/><path fill="#e8e7e6" d="M 57.789062 56.347656 L 34.542969 56.347656 C 33.503906 56.347656 32.644531 55.507812 32.644531 54.449219 C 32.644531 53.394531 33.503906 52.535156 34.542969 52.535156 L 57.789062 52.535156 C 58.847656 52.535156 59.707031 53.394531 59.707031 54.449219 C 59.707031 55.507812 58.847656 56.347656 57.789062 56.347656 Z M 57.789062 56.347656 " fill-opacity="1" fill-rule="evenodd"/><path fill="#e8e7e6" d="M 107.65625 69.171875 L 34.542969 69.171875 C 33.503906 69.171875 32.644531 68.3125 32.644531 67.253906 C 32.644531 66.195312 33.503906 65.335938 34.542969 65.335938 L 107.65625 65.335938 C 108.714844 65.335938 109.574219 66.195312 109.574219 67.253906 C 109.574219 68.3125 108.714844 69.171875 107.65625 69.171875 Z M 107.65625 69.171875 " fill-opacity="1" fill-rule="evenodd"/><path fill="#e8e7e6" d="M 107.65625 77.632812 L 34.542969 77.632812 C 33.503906 77.632812 32.644531 76.773438 32.644531 75.714844 C 32.644531 74.65625 33.503906 73.820312 34.542969 73.820312 L 107.65625 73.820312 C 108.714844 73.820312 109.574219 74.65625 109.574219 75.714844 C 109.574219 76.773438 108.714844 77.632812 107.65625 77.632812 Z M 107.65625 77.632812 " fill-opacity="1" fill-rule="evenodd"/><path fill="#e8e7e6" d="M 119.863281 102.972656 L 22.3125 102.972656 C 18.828125 102.972656 15.546875 101.609375 13.054688 99.117188 C 10.566406 96.628906 9.199219 93.34375 9.199219 89.863281 L 9.199219 22.367188 C 9.199219 18.886719 10.566406 15.601562 13.054688 13.113281 C 15.546875 10.621094 18.828125 9.253906 22.3125 9.253906 L 76.167969 9.253906 C 77.226562 9.253906 78.0625 10.113281 78.0625 11.171875 C 78.0625 12.230469 77.226562 13.066406 76.167969 13.066406 L 22.3125 13.066406 C 17.199219 13.066406 13.011719 17.253906 13.011719 22.367188 L 13.011719 89.863281 C 13.011719 94.996094 17.199219 99.160156 22.3125 99.160156 L 119.863281 99.160156 C 125.019531 99.160156 129.1875 94.996094 129.1875 89.863281 L 129.1875 50.527344 C 129.1875 49.492188 130.046875 48.632812 131.101562 48.632812 C 132.160156 48.632812 133.019531 49.492188 133.019531 50.527344 L 133.019531 89.863281 C 133.019531 93.34375 131.632812 96.628906 129.140625 99.117188 C 126.652344 101.609375 123.367188 102.972656 119.863281 102.972656 Z M 119.863281 102.972656 " fill-opacity="1" fill-rule="evenodd"/><path fill="#e8e7e6" d="M 119.753906 87.792969 C 118.695312 87.792969 117.835938 86.933594 117.835938 85.875 L 117.835938 48.742188 C 117.835938 47.6875 118.695312 46.847656 119.753906 46.847656 C 120.8125 46.847656 121.648438 47.6875 121.648438 48.742188 L 121.648438 85.875 C 121.648438 86.933594 120.8125 87.792969 119.753906 87.792969 Z M 22.464844 87.792969 C 21.40625 87.792969 20.546875 86.933594 20.546875 85.875 L 20.546875 28.050781 C 20.546875 23.929688 23.898438 20.582031 27.996094 20.582031 L 69.886719 20.582031 C 70.945312 20.582031 71.804688 21.441406 71.804688 22.5 C 71.804688 23.554688 70.945312 24.394531 69.886719 24.394531 L 27.996094 24.394531 C 25.992188 24.394531 24.359375 26.046875 24.359375 28.050781 L 24.359375 85.875 C 24.359375 86.933594 23.523438 87.792969 22.464844 87.792969 Z M 22.464844 87.792969 " fill-opacity="1" fill-rule="evenodd"/><path fill="#e8e7e6" d="M 131.101562 87.792969 L 11.117188 87.792969 C 10.058594 87.792969 9.199219 86.933594 9.199219 85.875 C 9.199219 84.816406 10.058594 83.980469 11.117188 83.980469 L 131.101562 83.980469 C 132.160156 83.980469 133.019531 84.816406 133.019531 85.875 C 133.019531 86.933594 132.160156 87.792969 131.101562 87.792969 Z M 131.101562 87.792969 " fill-opacity="1" fill-rule="evenodd"/><path fill="#e8e7e6" d="M 72.816406 95.394531 L 69.378906 95.394531 C 68.34375 95.394531 67.484375 94.535156 67.484375 93.476562 C 67.484375 92.441406 68.34375 91.582031 69.378906 91.582031 L 72.816406 91.582031 C 73.875 91.582031 74.734375 92.441406 74.734375 93.476562 C 74.734375 94.535156 73.875 95.394531 72.816406 95.394531 Z M 72.816406 95.394531 " fill-opacity="1" fill-rule="evenodd"/><path fill="#e8e7e6" d="M 98.84375 117.519531 L 43.378906 117.519531 C 38.289062 117.519531 34.167969 113.398438 34.167969 108.351562 L 34.167969 101.058594 C 34.167969 100.019531 35.027344 99.160156 36.082031 99.160156 C 37.121094 99.160156 37.980469 100.019531 37.980469 101.058594 L 37.980469 108.351562 C 37.980469 111.304688 40.402344 113.707031 43.378906 113.707031 L 98.84375 113.707031 C 101.796875 113.707031 104.199219 111.304688 104.199219 108.351562 L 104.199219 101.058594 C 104.199219 100.019531 105.058594 99.160156 106.113281 99.160156 C 107.171875 99.160156 108.007812 100.019531 108.007812 101.058594 L 108.007812 108.351562 C 108.007812 113.398438 103.910156 117.519531 98.84375 117.519531 Z M 98.84375 117.519531 " fill-opacity="1" fill-rule="evenodd"/><path fill="#e8e7e6" d="M 50.980469 135.609375 C 50.386719 135.609375 49.8125 135.34375 49.4375 134.839844 C 48.820312 134 48.996094 132.789062 49.855469 132.171875 C 57.214844 126.773438 54.441406 116.21875 54.417969 116.109375 C 54.132812 115.09375 54.726562 114.058594 55.738281 113.773438 C 56.753906 113.484375 57.8125 114.101562 58.097656 115.117188 C 58.121094 115.25 58.980469 118.421875 58.714844 122.453125 C 58.339844 127.917969 56.046875 132.347656 52.105469 135.257812 C 51.773438 135.5 51.378906 135.609375 50.980469 135.609375 Z M 50.980469 135.609375 " fill-opacity="1" fill-rule="evenodd"/><path fill="#e8e7e6" d="M 91.238281 135.609375 C 90.84375 135.609375 90.445312 135.5 90.09375 135.257812 C 86.148438 132.347656 83.878906 127.917969 83.503906 122.453125 C 83.21875 118.421875 84.078125 115.25 84.121094 115.117188 C 84.410156 114.101562 85.445312 113.484375 86.457031 113.773438 C 87.472656 114.058594 88.089844 115.09375 87.800781 116.109375 C 87.78125 116.175781 87.074219 118.929688 87.316406 122.300781 C 87.625 126.617188 89.324219 129.945312 92.363281 132.171875 C 93.203125 132.789062 93.398438 134 92.761719 134.839844 C 92.386719 135.34375 91.8125 135.609375 91.238281 135.609375 Z M 91.238281 135.609375 " fill-opacity="1" fill-rule="evenodd"/><g clip-path="url(#b3518670a7)"><path fill="#e8e7e6" d="M 97.386719 146.890625 L 44.808594 146.890625 C 40.644531 146.890625 37.273438 143.519531 37.273438 139.355469 C 37.273438 135.191406 40.644531 131.796875 44.808594 131.796875 L 97.386719 131.796875 C 101.554688 131.796875 104.945312 135.191406 104.945312 139.355469 C 104.945312 143.519531 101.554688 146.890625 97.386719 146.890625 Z M 44.808594 135.609375 C 42.761719 135.609375 41.085938 137.304688 41.085938 139.355469 C 41.085938 141.40625 42.761719 143.078125 44.808594 143.078125 L 97.386719 143.078125 C 99.4375 143.078125 101.132812 141.40625 101.132812 139.355469 C 101.132812 137.328125 99.414062 135.609375 97.386719 135.609375 Z M 44.808594 135.609375 " fill-opacity="1" fill-rule="evenodd"/></g><path fill="#e8e7e6" d="M 44.324219 110.246094 L 44.238281 110.246094 C 43.179688 110.246094 42.320312 109.386719 42.320312 108.351562 C 42.320312 107.292969 43.179688 106.433594 44.238281 106.433594 L 44.324219 106.433594 C 45.382812 106.433594 46.242188 107.292969 46.242188 108.351562 C 46.242188 109.386719 45.382812 110.246094 44.324219 110.246094 Z M 44.324219 110.246094 " fill-opacity="1" fill-rule="evenodd"/><path fill="#e8e7e6" d="M 54 110.246094 L 53.933594 110.246094 C 52.875 110.246094 52.039062 109.386719 52.039062 108.351562 C 52.039062 107.292969 52.875 106.433594 53.933594 106.433594 L 54 106.433594 C 55.058594 106.433594 55.917969 107.292969 55.917969 108.351562 C 55.917969 109.386719 55.058594 110.246094 54 110.246094 Z M 54 110.246094 " fill-opacity="1" fill-rule="evenodd"/><path fill="#e8e7e6" d="M 63.71875 110.246094 L 63.605469 110.246094 C 62.570312 110.246094 61.710938 109.386719 61.710938 108.351562 C 61.710938 107.292969 62.570312 106.433594 63.605469 106.433594 L 63.71875 106.433594 C 64.773438 106.433594 65.613281 107.292969 65.613281 108.351562 C 65.613281 109.386719 64.773438 110.246094 63.71875 110.246094 Z M 63.71875 110.246094 " fill-opacity="1" fill-rule="evenodd"/><path fill="#e8e7e6" d="M 78.769531 53.21875 C 77.953125 53.21875 77.070312 53.152344 76.167969 52.996094 C 72.707031 52.421875 70.195312 50.199219 68.875 46.519531 C 67.992188 44.027344 67.96875 41.714844 67.992188 41.472656 L 67.992188 22.585938 C 67.992188 19.371094 69.46875 14.476562 72.707031 11.347656 C 74.226562 9.894531 76.210938 8.8125 78.570312 8.132812 C 80.839844 7.492188 83 7.359375 84.410156 7.359375 L 121.253906 7.359375 C 122.664062 7.359375 124.84375 7.492188 127.113281 8.132812 C 129.472656 8.8125 131.457031 9.894531 132.953125 11.347656 C 136.195312 14.457031 137.691406 19.371094 137.691406 22.585938 L 137.691406 41.472656 C 137.691406 41.714844 137.671875 44.050781 136.789062 46.519531 C 135.511719 50.175781 132.976562 52.421875 129.515625 52.996094 C 126.320312 53.527344 123.480469 53.105469 120.835938 51.71875 C 118.410156 50.441406 116.425781 48.5 114.753906 46.761719 C 114.023438 46.011719 114.046875 44.800781 114.796875 44.070312 C 115.566406 43.324219 116.757812 43.34375 117.507812 44.117188 C 120.921875 47.640625 123.742188 50.085938 128.898438 49.226562 C 133.902344 48.414062 133.878906 41.582031 133.859375 41.492188 C 133.859375 41.492188 133.859375 41.492188 133.859375 41.472656 L 133.859375 22.585938 C 133.859375 20.539062 132.910156 16.59375 130.308594 14.101562 C 127.578125 11.457031 123.058594 11.171875 121.253906 11.171875 L 84.410156 11.171875 C 82.601562 11.171875 78.128906 11.457031 75.351562 14.101562 C 73.015625 16.351562 71.804688 20.074219 71.804688 22.585938 L 71.804688 41.472656 C 71.804688 41.492188 71.804688 41.492188 71.804688 41.492188 C 71.804688 41.515625 71.804688 43.390625 72.507812 45.328125 C 73.347656 47.621094 74.734375 48.898438 76.785156 49.226562 C 81.917969 50.066406 84.761719 47.640625 88.199219 44.09375 C 88.925781 43.34375 90.136719 43.324219 90.886719 44.070312 C 91.660156 44.800781 91.660156 46.011719 90.929688 46.761719 C 87.605469 50.175781 84.144531 53.21875 78.769531 53.21875 Z M 106.863281 42.351562 L 98.796875 42.351562 C 97.742188 42.351562 96.882812 41.492188 96.882812 40.457031 C 96.882812 39.402344 97.742188 38.539062 98.796875 38.539062 L 106.863281 38.539062 C 107.921875 38.539062 108.78125 39.402344 108.78125 40.457031 C 108.78125 41.492188 107.921875 42.351562 106.863281 42.351562 Z M 106.863281 42.351562 " fill-opacity="1" fill-rule="evenodd"/><path fill="#e8e7e6" d="M 93.203125 48.699219 C 89.058594 48.699219 85.664062 45.328125 85.664062 41.164062 C 85.664062 37.019531 89.058594 33.628906 93.203125 33.628906 C 97.367188 33.628906 100.738281 37.019531 100.738281 41.164062 C 100.738281 45.328125 97.367188 48.699219 93.203125 48.699219 Z M 93.203125 37.4375 C 91.152344 37.4375 89.5 39.113281 89.5 41.164062 C 89.5 43.210938 91.152344 44.886719 93.203125 44.886719 C 95.273438 44.886719 96.925781 43.210938 96.925781 41.164062 C 96.925781 39.113281 95.273438 37.4375 93.203125 37.4375 Z M 93.203125 37.4375 " fill-opacity="1" fill-rule="evenodd"/><path fill="#e8e7e6" d="M 112.484375 48.699219 C 108.316406 48.699219 104.945312 45.328125 104.945312 41.164062 C 104.945312 39.136719 105.71875 37.242188 107.148438 35.832031 C 108.558594 34.421875 110.457031 33.628906 112.484375 33.628906 C 116.625 33.628906 120.019531 37.019531 120.019531 41.164062 C 120.019531 45.328125 116.625 48.699219 112.484375 48.699219 Z M 112.484375 37.4375 C 110.390625 37.4375 108.757812 39.070312 108.757812 41.164062 C 108.757812 43.210938 110.433594 44.886719 112.484375 44.886719 C 114.53125 44.886719 116.207031 43.210938 116.207031 41.164062 C 116.207031 39.113281 114.53125 37.4375 112.484375 37.4375 Z M 112.484375 37.4375 " fill-opacity="1" fill-rule="evenodd"/><path fill="#e8e7e6" d="M 111.007812 11.171875 C 110.234375 11.171875 109.507812 10.710938 109.222656 9.9375 L 107.238281 4.761719 C 107.019531 4.164062 106.863281 3.921875 106.777344 3.8125 L 98.910156 3.8125 C 98.820312 3.921875 98.667969 4.164062 98.445312 4.761719 L 96.441406 9.9375 C 96.066406 10.929688 94.964844 11.414062 93.972656 11.039062 C 93.003906 10.664062 92.496094 9.5625 92.894531 8.570312 L 94.898438 3.371094 C 95.25 2.445312 96.199219 0 98.820312 0 L 106.863281 0 C 109.484375 0 110.433594 2.445312 110.808594 3.371094 C 110.808594 3.371094 110.808594 3.371094 110.808594 3.394531 L 112.792969 8.570312 C 113.164062 9.5625 112.660156 10.664062 111.691406 11.039062 C 111.445312 11.128906 111.226562 11.171875 111.007812 11.171875 Z M 111.007812 11.171875 " fill-opacity="1" fill-rule="evenodd"/><path fill="#e8e7e6" d="M 84.011719 31.90625 C 82.953125 31.90625 82.09375 31.046875 82.09375 30.011719 L 82.09375 17.628906 C 82.09375 16.570312 82.953125 15.710938 84.011719 15.710938 C 85.070312 15.710938 85.90625 16.570312 85.90625 17.628906 L 85.90625 30.011719 C 85.90625 31.046875 85.070312 31.90625 84.011719 31.90625 Z M 84.011719 31.90625 " fill-opacity="1" fill-rule="evenodd"/><path fill="#e8e7e6" d="M 90.203125 25.714844 L 77.820312 25.714844 C 76.785156 25.714844 75.925781 24.855469 75.925781 23.800781 C 75.925781 22.761719 76.785156 21.902344 77.820312 21.902344 L 90.203125 21.902344 C 91.261719 21.902344 92.121094 22.761719 92.121094 23.800781 C 92.121094 24.855469 91.261719 25.714844 90.203125 25.714844 Z M 90.203125 25.714844 " fill-opacity="1" fill-rule="evenodd"/><path fill="#e8e7e6" d="M 121.671875 19.566406 L 121.648438 19.566406 C 120.613281 19.566406 119.753906 18.707031 119.753906 17.652344 C 119.753906 16.59375 120.613281 15.753906 121.648438 15.753906 L 121.671875 15.753906 C 122.730469 15.753906 123.589844 16.59375 123.589844 17.652344 C 123.589844 18.707031 122.730469 19.566406 121.671875 19.566406 Z M 121.671875 19.566406 " fill-opacity="1" fill-rule="evenodd"/><path fill="#e8e7e6" d="M 121.671875 31.886719 L 121.648438 31.886719 C 120.613281 31.886719 119.753906 31.027344 119.753906 29.992188 C 119.753906 28.933594 120.613281 28.074219 121.648438 28.074219 L 121.671875 28.074219 C 122.730469 28.074219 123.589844 28.933594 123.589844 29.992188 C 123.589844 31.027344 122.730469 31.886719 121.671875 31.886719 Z M 121.671875 31.886719 " fill-opacity="1" fill-rule="evenodd"/><path fill="#e8e7e6" d="M 127.84375 25.738281 C 126.785156 25.738281 125.925781 24.878906 125.925781 23.820312 L 125.925781 23.800781 C 125.925781 22.761719 126.785156 21.902344 127.84375 21.902344 C 128.898438 21.902344 129.738281 22.761719 129.738281 23.800781 L 129.738281 23.820312 C 129.738281 24.878906 128.898438 25.738281 127.84375 25.738281 Z M 127.84375 25.738281 " fill-opacity="1" fill-rule="evenodd"/><path fill="#e8e7e6" d="M 115.5 25.738281 C 114.445312 25.738281 113.605469 24.878906 113.605469 23.820312 L 113.605469 23.800781 C 113.605469 22.761719 114.445312 21.902344 115.5 21.902344 C 116.558594 21.902344 117.417969 22.761719 117.417969 23.800781 L 117.417969 23.820312 C 117.417969 24.878906 116.558594 25.738281 115.5 25.738281 Z M 115.5 25.738281 " fill-opacity="1" fill-rule="evenodd"/><path fill="#e8e7e6" d="M 109.023438 17.960938 L 96.660156 17.960938 C 95.625 17.960938 94.765625 17.101562 94.765625 16.0625 C 94.765625 15.007812 95.625 14.148438 96.660156 14.148438 L 109.023438 14.148438 C 110.082031 14.148438 110.917969 15.007812 110.917969 16.0625 C 110.917969 17.101562 110.082031 17.960938 109.023438 17.960938 Z M 109.023438 17.960938 " fill-opacity="1" fill-rule="evenodd"/><path fill="#e8e7e6" d="M 106.046875 24.238281 L 99.65625 24.238281 C 98.601562 24.238281 97.742188 23.378906 97.742188 22.324219 C 97.742188 21.265625 98.601562 20.425781 99.65625 20.425781 L 106.046875 20.425781 C 107.085938 20.425781 107.945312 21.265625 107.945312 22.324219 C 107.945312 23.378906 107.085938 24.238281 106.046875 24.238281 Z M 106.046875 24.238281 " fill-opacity="1" fill-rule="evenodd"/><path fill="#e8e7e6" d="M 38.484375 47.023438 C 38.066406 47.023438 37.671875 46.894531 37.316406 46.628906 L 29.320312 40.414062 C 28.855469 40.039062 28.589844 39.488281 28.589844 38.894531 C 28.589844 38.320312 28.855469 37.769531 29.320312 37.394531 L 37.316406 31.160156 C 38.132812 30.496094 39.34375 30.652344 39.984375 31.46875 C 40.644531 32.304688 40.492188 33.515625 39.652344 34.15625 L 33.59375 38.894531 L 39.652344 43.609375 C 40.492188 44.269531 40.644531 45.460938 39.984375 46.296875 C 39.609375 46.78125 39.058594 47.023438 38.484375 47.023438 Z M 38.484375 47.023438 " fill-opacity="1" fill-rule="evenodd"/><path fill="#e8e7e6" d="M 53.867188 47.023438 C 53.292969 47.023438 52.742188 46.78125 52.367188 46.296875 C 51.707031 45.460938 51.863281 44.269531 52.699219 43.632812 L 58.738281 38.894531 L 52.675781 34.15625 C 51.863281 33.496094 51.707031 32.304688 52.367188 31.46875 C 53.007812 30.652344 54.21875 30.496094 55.035156 31.160156 L 63.011719 37.394531 C 63.476562 37.769531 63.738281 38.320312 63.738281 38.894531 C 63.738281 39.488281 63.476562 40.039062 63.011719 40.414062 L 55.035156 46.628906 C 54.683594 46.894531 54.285156 47.023438 53.867188 47.023438 Z M 53.867188 47.023438 " fill-opacity="1" fill-rule="evenodd"/><path fill="#e8e7e6" d="M 44.238281 47.023438 C 44.039062 47.023438 43.863281 47.003906 43.664062 46.9375 C 42.652344 46.628906 42.101562 45.570312 42.410156 44.558594 L 46.285156 32.085938 C 46.617188 31.070312 47.675781 30.519531 48.6875 30.828125 C 49.703125 31.136719 50.253906 32.214844 49.945312 33.230469 L 46.042969 45.703125 C 45.800781 46.519531 45.050781 47.023438 44.238281 47.023438 Z M 44.238281 47.023438 " fill-opacity="1" fill-rule="evenodd"/><path fill="#e8e7e6" d="M 57.789062 56.347656 L 34.542969 56.347656 C 33.503906 56.347656 32.644531 55.507812 32.644531 54.449219 C 32.644531 53.394531 33.503906 52.535156 34.542969 52.535156 L 57.789062 52.535156 C 58.847656 52.535156 59.707031 53.394531 59.707031 54.449219 C 59.707031 55.507812 58.847656 56.347656 57.789062 56.347656 Z M 57.789062 56.347656 " fill-opacity="1" fill-rule="evenodd"/><path fill="#e8e7e6" d="M 107.65625 69.171875 L 34.542969 69.171875 C 33.503906 69.171875 32.644531 68.3125 32.644531 67.253906 C 32.644531 66.195312 33.503906 65.335938 34.542969 65.335938 L 107.65625 65.335938 C 108.714844 65.335938 109.574219 66.195312 109.574219 67.253906 C 109.574219 68.3125 108.714844 69.171875 107.65625 69.171875 Z M 107.65625 69.171875 " fill-opacity="1" fill-rule="evenodd"/><path fill="#e8e7e6" d="M 107.65625 77.632812 L 34.542969 77.632812 C 33.503906 77.632812 32.644531 76.773438 32.644531 75.714844 C 32.644531 74.65625 33.503906 73.820312 34.542969 73.820312 L 107.65625 73.820312 C 108.714844 73.820312 109.574219 74.65625 109.574219 75.714844 C 109.574219 76.773438 108.714844 77.632812 107.65625 77.632812 Z M 107.65625 77.632812 " fill-opacity="1" fill-rule="evenodd"/></svg>