<svg xmlns="http://www.w3.org/2000/svg" xmlns:xlink="http://www.w3.org/1999/xlink" width="172" zoomAndPan="magnify" viewBox="0 0 129 92.249997" height="123" preserveAspectRatio="xMidYMid meet" version="1.0"><defs><clipPath id="01bc724d3f"><path d="M 0.519531 0 L 112 0 L 112 91.507812 L 0.519531 91.507812 Z M 0.519531 0 " clip-rule="nonzero"/></clipPath><clipPath id="92f354cb10"><path d="M 93 45 L 128.480469 45 L 128.480469 49 L 93 49 Z M 93 45 " clip-rule="nonzero"/></clipPath><clipPath id="6a7ede2f4d"><path d="M 0.519531 0 L 112 0 L 112 91.507812 L 0.519531 91.507812 Z M 0.519531 0 " clip-rule="nonzero"/></clipPath><clipPath id="afddba4d04"><path d="M 93 45 L 128.480469 45 L 128.480469 49 L 93 49 Z M 93 45 " clip-rule="nonzero"/></clipPath></defs><g clip-path="url(#01bc724d3f)"><path fill="#e8e7e6" d="M 101.753906 91.203125 L 10.113281 91.203125 C 4.828125 91.203125 0.519531 86.898438 0.519531 81.613281 L 0.519531 9.683594 C 0.519531 4.398438 4.828125 0.09375 10.113281 0.09375 L 101.726562 0.09375 C 107.011719 0.09375 111.320312 4.398438 111.320312 9.683594 L 111.320312 30.15625 C 111.320312 31.078125 110.5625 31.832031 109.640625 31.832031 C 108.71875 31.832031 107.960938 31.078125 107.960938 30.15625 L 107.960938 9.683594 C 107.960938 6.246094 105.167969 3.449219 101.726562 3.449219 L 10.113281 3.449219 C 6.671875 3.449219 3.875 6.246094 3.875 9.683594 L 3.875 81.640625 C 3.875 85.078125 6.671875 87.875 10.113281 87.875 L 101.726562 87.875 C 105.167969 87.875 107.960938 85.078125 107.960938 81.640625 L 107.960938 76.632812 C 107.960938 75.710938 108.71875 74.957031 109.640625 74.957031 C 110.5625 74.957031 111.320312 75.710938 111.320312 76.632812 L 111.320312 81.640625 C 111.347656 86.898438 107.039062 91.203125 101.753906 91.203125 Z M 101.753906 91.203125 " fill-opacity="1" fill-rule="nonzero"/></g><path fill="#e8e7e6" d="M 108.660156 23.109375 L 3.203125 23.109375 C 2.28125 23.109375 1.527344 22.351562 1.527344 21.429688 C 1.527344 20.507812 2.28125 19.753906 3.203125 19.753906 L 108.660156 19.753906 C 109.585938 19.753906 110.339844 20.507812 110.339844 21.429688 C 110.339844 22.351562 109.585938 23.109375 108.660156 23.109375 Z M 108.660156 23.109375 " fill-opacity="1" fill-rule="nonzero"/><path fill="#e8e7e6" d="M 13.777344 16.257812 C 11.230469 16.257812 9.160156 14.1875 9.160156 11.644531 C 9.160156 9.097656 11.230469 7.027344 13.777344 7.027344 C 16.320312 7.027344 18.390625 9.097656 18.390625 11.644531 C 18.390625 14.1875 16.320312 16.257812 13.777344 16.257812 Z M 13.777344 10.382812 C 13.078125 10.382812 12.515625 10.945312 12.515625 11.644531 C 12.515625 12.339844 13.078125 12.902344 13.777344 12.902344 C 14.476562 12.902344 15.035156 12.339844 15.035156 11.644531 C 15.035156 10.945312 14.476562 10.382812 13.777344 10.382812 Z M 13.777344 10.382812 " fill-opacity="1" fill-rule="nonzero"/><path fill="#e8e7e6" d="M 25.242188 16.257812 C 22.695312 16.257812 20.628906 14.1875 20.628906 11.644531 C 20.628906 9.097656 22.695312 7.027344 25.242188 7.027344 C 27.785156 7.027344 29.855469 9.097656 29.855469 11.644531 C 29.855469 14.1875 27.785156 16.257812 25.242188 16.257812 Z M 25.242188 10.382812 C 24.542969 10.382812 23.984375 10.945312 23.984375 11.644531 C 23.984375 12.339844 24.542969 12.902344 25.242188 12.902344 C 25.941406 12.902344 26.5 12.339844 26.5 11.644531 C 26.5 10.945312 25.941406 10.382812 25.242188 10.382812 Z M 25.242188 10.382812 " fill-opacity="1" fill-rule="nonzero"/><path fill="#e8e7e6" d="M 46.691406 77.417969 C 45.683594 77.417969 44.648438 77.136719 43.726562 76.605469 C 41.851562 75.542969 40.761719 73.613281 40.761719 71.460938 L 40.761719 38.460938 C 40.761719 36.308594 41.878906 34.378906 43.726562 33.316406 C 45.601562 32.253906 47.808594 32.253906 49.65625 33.34375 L 77.984375 49.84375 C 79.828125 50.90625 80.921875 52.835938 80.921875 54.960938 C 80.921875 57.085938 79.828125 59.015625 77.984375 60.078125 L 49.65625 76.578125 C 48.730469 77.136719 47.726562 77.417969 46.691406 77.417969 Z M 46.691406 35.886719 C 46.242188 35.886719 45.824219 36 45.40625 36.222656 C 44.59375 36.699219 44.117188 37.511719 44.117188 38.460938 L 44.117188 71.460938 C 44.117188 72.382812 44.59375 73.222656 45.40625 73.699219 C 46.214844 74.171875 47.167969 74.171875 47.976562 73.699219 L 76.304688 57.199219 C 77.117188 56.722656 77.59375 55.910156 77.59375 54.960938 C 77.59375 54.039062 77.117188 53.199219 76.304688 52.722656 L 47.976562 36.222656 C 47.585938 36 47.136719 35.886719 46.691406 35.886719 Z M 46.691406 35.886719 " fill-opacity="1" fill-rule="nonzero"/><path fill="#e8e7e6" d="M 31.898438 41.175781 L 14.222656 41.175781 C 13.300781 41.175781 12.546875 40.417969 12.546875 39.496094 C 12.546875 38.574219 13.300781 37.816406 14.222656 37.816406 L 31.871094 37.816406 C 32.792969 37.816406 33.546875 38.574219 33.546875 39.496094 C 33.546875 40.417969 32.820312 41.175781 31.898438 41.175781 Z M 31.898438 41.175781 " fill-opacity="1" fill-rule="nonzero"/><path fill="#e8e7e6" d="M 31.898438 53.535156 L 14.222656 53.535156 C 13.300781 53.535156 12.546875 52.78125 12.546875 51.855469 C 12.546875 50.933594 13.300781 50.179688 14.222656 50.179688 L 31.871094 50.179688 C 32.792969 50.179688 33.546875 50.933594 33.546875 51.855469 C 33.546875 52.78125 32.820312 53.535156 31.898438 53.535156 Z M 31.898438 53.535156 " fill-opacity="1" fill-rule="nonzero"/><path fill="#e8e7e6" d="M 31.898438 65.921875 L 14.222656 65.921875 C 13.300781 65.921875 12.546875 65.167969 12.546875 64.246094 C 12.546875 63.324219 13.300781 62.566406 14.222656 62.566406 L 31.871094 62.566406 C 32.792969 62.566406 33.546875 63.324219 33.546875 64.246094 C 33.546875 65.167969 32.820312 65.921875 31.898438 65.921875 Z M 31.898438 65.921875 " fill-opacity="1" fill-rule="nonzero"/><path fill="#e8e7e6" d="M 112.128906 39.664062 L 87.546875 39.664062 C 86.625 39.664062 85.871094 38.910156 85.871094 37.984375 C 85.871094 37.0625 86.625 36.308594 87.546875 36.308594 L 112.128906 36.308594 C 113.050781 36.308594 113.808594 37.0625 113.808594 37.984375 C 113.808594 38.910156 113.050781 39.664062 112.128906 39.664062 Z M 112.128906 39.664062 " fill-opacity="1" fill-rule="nonzero"/><g clip-path="url(#92f354cb10)"><path fill="#e8e7e6" d="M 126.753906 48.417969 L 95.070312 48.417969 C 94.148438 48.417969 93.394531 47.660156 93.394531 46.738281 C 93.394531 45.816406 94.148438 45.0625 95.070312 45.0625 L 126.753906 45.0625 C 127.679688 45.0625 128.433594 45.816406 128.433594 46.738281 C 128.433594 47.660156 127.679688 48.417969 126.753906 48.417969 Z M 126.753906 48.417969 " fill-opacity="1" fill-rule="nonzero"/></g><path fill="#e8e7e6" d="M 120.742188 61.980469 L 94.484375 61.980469 C 93.5625 61.980469 92.804688 61.226562 92.804688 60.300781 C 92.804688 59.378906 93.5625 58.625 94.484375 58.625 L 120.742188 58.625 C 121.664062 58.625 122.421875 59.378906 122.421875 60.300781 C 122.421875 61.226562 121.664062 61.980469 120.742188 61.980469 Z M 120.742188 61.980469 " fill-opacity="1" fill-rule="nonzero"/><path fill="#e8e7e6" d="M 105.5 71.796875 L 85.5625 71.796875 C 84.640625 71.796875 83.882812 71.039062 83.882812 70.117188 C 83.882812 69.195312 84.640625 68.441406 85.5625 68.441406 L 105.5 68.441406 C 106.425781 68.441406 107.179688 69.195312 107.179688 70.117188 C 107.179688 71.039062 106.425781 71.796875 105.5 71.796875 Z M 105.5 71.796875 " fill-opacity="1" fill-rule="nonzero"/><g clip-path="url(#6a7ede2f4d)"><path fill="#e8e7e6" d="M 101.753906 91.203125 L 10.113281 91.203125 C 4.828125 91.203125 0.519531 86.898438 0.519531 81.613281 L 0.519531 9.683594 C 0.519531 4.398438 4.828125 0.09375 10.113281 0.09375 L 101.726562 0.09375 C 107.011719 0.09375 111.320312 4.398438 111.320312 9.683594 L 111.320312 30.15625 C 111.320312 31.078125 110.5625 31.832031 109.640625 31.832031 C 108.71875 31.832031 107.960938 31.078125 107.960938 30.15625 L 107.960938 9.683594 C 107.960938 6.246094 105.167969 3.449219 101.726562 3.449219 L 10.113281 3.449219 C 6.671875 3.449219 3.875 6.246094 3.875 9.683594 L 3.875 81.640625 C 3.875 85.078125 6.671875 87.875 10.113281 87.875 L 101.726562 87.875 C 105.167969 87.875 107.960938 85.078125 107.960938 81.640625 L 107.960938 76.632812 C 107.960938 75.710938 108.71875 74.957031 109.640625 74.957031 C 110.5625 74.957031 111.320312 75.710938 111.320312 76.632812 L 111.320312 81.640625 C 111.347656 86.898438 107.039062 91.203125 101.753906 91.203125 Z M 101.753906 91.203125 " fill-opacity="1" fill-rule="nonzero"/></g><path fill="#e8e7e6" d="M 108.660156 23.109375 L 3.203125 23.109375 C 2.28125 23.109375 1.527344 22.351562 1.527344 21.429688 C 1.527344 20.507812 2.28125 19.753906 3.203125 19.753906 L 108.660156 19.753906 C 109.585938 19.753906 110.339844 20.507812 110.339844 21.429688 C 110.339844 22.351562 109.585938 23.109375 108.660156 23.109375 Z M 108.660156 23.109375 " fill-opacity="1" fill-rule="nonzero"/><path fill="#e8e7e6" d="M 13.777344 16.257812 C 11.230469 16.257812 9.160156 14.1875 9.160156 11.644531 C 9.160156 9.097656 11.230469 7.027344 13.777344 7.027344 C 16.320312 7.027344 18.390625 9.097656 18.390625 11.644531 C 18.390625 14.1875 16.320312 16.257812 13.777344 16.257812 Z M 13.777344 10.382812 C 13.078125 10.382812 12.515625 10.945312 12.515625 11.644531 C 12.515625 12.339844 13.078125 12.902344 13.777344 12.902344 C 14.476562 12.902344 15.035156 12.339844 15.035156 11.644531 C 15.035156 10.945312 14.476562 10.382812 13.777344 10.382812 Z M 13.777344 10.382812 " fill-opacity="1" fill-rule="nonzero"/><path fill="#e8e7e6" d="M 25.242188 16.257812 C 22.695312 16.257812 20.628906 14.1875 20.628906 11.644531 C 20.628906 9.097656 22.695312 7.027344 25.242188 7.027344 C 27.785156 7.027344 29.855469 9.097656 29.855469 11.644531 C 29.855469 14.1875 27.785156 16.257812 25.242188 16.257812 Z M 25.242188 10.382812 C 24.542969 10.382812 23.984375 10.945312 23.984375 11.644531 C 23.984375 12.339844 24.542969 12.902344 25.242188 12.902344 C 25.941406 12.902344 26.5 12.339844 26.5 11.644531 C 26.5 10.945312 25.941406 10.382812 25.242188 10.382812 Z M 25.242188 10.382812 " fill-opacity="1" fill-rule="nonzero"/><path fill="#e8e7e6" d="M 46.691406 77.417969 C 45.683594 77.417969 44.648438 77.136719 43.726562 76.605469 C 41.851562 75.542969 40.761719 73.613281 40.761719 71.460938 L 40.761719 38.460938 C 40.761719 36.308594 41.878906 34.378906 43.726562 33.316406 C 45.601562 32.253906 47.808594 32.253906 49.65625 33.34375 L 77.984375 49.84375 C 79.828125 50.90625 80.921875 52.835938 80.921875 54.960938 C 80.921875 57.085938 79.828125 59.015625 77.984375 60.078125 L 49.65625 76.578125 C 48.730469 77.136719 47.726562 77.417969 46.691406 77.417969 Z M 46.691406 35.886719 C 46.242188 35.886719 45.824219 36 45.40625 36.222656 C 44.59375 36.699219 44.117188 37.511719 44.117188 38.460938 L 44.117188 71.460938 C 44.117188 72.382812 44.59375 73.222656 45.40625 73.699219 C 46.214844 74.171875 47.167969 74.171875 47.976562 73.699219 L 76.304688 57.199219 C 77.117188 56.722656 77.59375 55.910156 77.59375 54.960938 C 77.59375 54.039062 77.117188 53.199219 76.304688 52.722656 L 47.976562 36.222656 C 47.585938 36 47.136719 35.886719 46.691406 35.886719 Z M 46.691406 35.886719 " fill-opacity="1" fill-rule="nonzero"/><path fill="#e8e7e6" d="M 31.898438 41.175781 L 14.222656 41.175781 C 13.300781 41.175781 12.546875 40.417969 12.546875 39.496094 C 12.546875 38.574219 13.300781 37.816406 14.222656 37.816406 L 31.871094 37.816406 C 32.792969 37.816406 33.546875 38.574219 33.546875 39.496094 C 33.546875 40.417969 32.820312 41.175781 31.898438 41.175781 Z M 31.898438 41.175781 " fill-opacity="1" fill-rule="nonzero"/><path fill="#e8e7e6" d="M 31.898438 53.535156 L 14.222656 53.535156 C 13.300781 53.535156 12.546875 52.78125 12.546875 51.855469 C 12.546875 50.933594 13.300781 50.179688 14.222656 50.179688 L 31.871094 50.179688 C 32.792969 50.179688 33.546875 50.933594 33.546875 51.855469 C 33.546875 52.78125 32.820312 53.535156 31.898438 53.535156 Z M 31.898438 53.535156 " fill-opacity="1" fill-rule="nonzero"/><path fill="#e8e7e6" d="M 31.898438 65.921875 L 14.222656 65.921875 C 13.300781 65.921875 12.546875 65.167969 12.546875 64.246094 C 12.546875 63.324219 13.300781 62.566406 14.222656 62.566406 L 31.871094 62.566406 C 32.792969 62.566406 33.546875 63.324219 33.546875 64.246094 C 33.546875 65.167969 32.820312 65.921875 31.898438 65.921875 Z M 31.898438 65.921875 " fill-opacity="1" fill-rule="nonzero"/><path fill="#e8e7e6" d="M 112.128906 39.664062 L 87.546875 39.664062 C 86.625 39.664062 85.871094 38.910156 85.871094 37.984375 C 85.871094 37.0625 86.625 36.308594 87.546875 36.308594 L 112.128906 36.308594 C 113.050781 36.308594 113.808594 37.0625 113.808594 37.984375 C 113.808594 38.910156 113.050781 39.664062 112.128906 39.664062 Z M 112.128906 39.664062 " fill-opacity="1" fill-rule="nonzero"/><g clip-path="url(#afddba4d04)"><path fill="#e8e7e6" d="M 126.753906 48.417969 L 95.070312 48.417969 C 94.148438 48.417969 93.394531 47.660156 93.394531 46.738281 C 93.394531 45.816406 94.148438 45.0625 95.070312 45.0625 L 126.753906 45.0625 C 127.679688 45.0625 128.433594 45.816406 128.433594 46.738281 C 128.433594 47.660156 127.679688 48.417969 126.753906 48.417969 Z M 126.753906 48.417969 " fill-opacity="1" fill-rule="nonzero"/></g><path fill="#e8e7e6" d="M 120.742188 61.980469 L 94.484375 61.980469 C 93.5625 61.980469 92.804688 61.226562 92.804688 60.300781 C 92.804688 59.378906 93.5625 58.625 94.484375 58.625 L 120.742188 58.625 C 121.664062 58.625 122.421875 59.378906 122.421875 60.300781 C 122.421875 61.226562 121.664062 61.980469 120.742188 61.980469 Z M 120.742188 61.980469 " fill-opacity="1" fill-rule="nonzero"/><path fill="#e8e7e6" d="M 105.5 71.796875 L 85.5625 71.796875 C 84.640625 71.796875 83.882812 71.039062 83.882812 70.117188 C 83.882812 69.195312 84.640625 68.441406 85.5625 68.441406 L 105.5 68.441406 C 106.425781 68.441406 107.179688 69.195312 107.179688 70.117188 C 107.179688 71.039062 106.425781 71.796875 105.5 71.796875 Z M 105.5 71.796875 " fill-opacity="1" fill-rule="nonzero"/></svg>